<?xml version="1.0" standalone="no"?>
<!DOCTYPE svg PUBLIC "-//W3C//DTD SVG 1.1//EN" "http://www.w3.org/Graphics/SVG/1.1/DTD/svg11.dtd" >
<!--
2013-9-30: Created.
-->
<svg>
<metadata>
Created by iconfont
</metadata>
<defs>

<font id="iconfont" horiz-adv-x="1024" >
  <font-face
    font-family="iconfont"
    font-weight="500"
    font-stretch="normal"
    units-per-em="1024"
    ascent="896"
    descent="-128"
  />
    <missing-glyph />
    
    <glyph glyph-name="project-manage" unicode="&#58923;" d="M403.911111 839.111111H108.088889c-28.444444 0-51.2-22.755556-51.2-51.2v-295.822222c0-28.444444 22.755556-51.2 51.2-51.2h295.822222c28.444444 0 51.2 22.755556 51.2 51.2V787.911111c0 28.444444-22.755556 51.2-51.2 51.2zM403.911111 327.11111100000005H108.088889c-28.444444 0-51.2-22.755556-51.2-51.2v-295.822222c0-28.444444 22.755556-51.2 51.2-51.2h295.822222c28.444444 0 51.2 22.755556 51.2 51.2v295.822222c0 28.444444-22.755556 51.2-51.2 51.2zM915.911111 327.11111100000005h-295.822222c-28.444444 0-51.2-22.755556-51.2-51.2v-295.822222c0-28.444444 22.755556-51.2 51.2-51.2h295.822222c28.444444 0 51.2 22.755556 51.2 51.2v295.822222c0 28.444444-22.755556 51.2-51.2 51.2zM915.911111 839.111111h-295.822222c-28.444444 0-51.2-22.755556-51.2-51.2v-295.822222c0-28.444444 22.755556-51.2 51.2-51.2h295.822222c28.444444 0 51.2 22.755556 51.2 51.2V787.911111c0 28.444444-22.755556 51.2-51.2 51.2z"  horiz-adv-x="1024" />

    
    <glyph glyph-name="download" unicode="&#58975;" d="M446.171429 193.828571L190.171429 449.828571c-14.628571 14.628571-14.628571 36.571429 0 51.2s36.571429 14.628571 51.2 0L438.857143 303.542857V859.428571c0 21.942857 14.628571 36.571429 36.571428 36.571429s36.571429-14.628571 36.571429-36.571429v-555.885714l197.485714 204.8c14.628571 14.628571 36.571429 14.628571 51.2 0l7.314286-7.314286c7.314286-14.628571 7.314286-29.257143-7.314286-43.885714L504.685714 193.828571c-14.628571-14.628571-36.571429-14.628571-58.514285 0zM182.857143 18.285713999999984c-21.942857 0-36.571429 14.628571-36.571429 36.571429s14.628571 36.571429 36.571429 36.571428h585.142857c21.942857 0 36.571429-14.628571 36.571429-36.571428s-14.628571-36.571429-36.571429-36.571429h-585.142857z m-146.285714-146.285714c-21.942857 0-36.571429 14.628571-36.571429 36.571429s14.628571 36.571429 36.571429 36.571428h877.714285c21.942857 0 36.571429-14.628571 36.571429-36.571428s-14.628571-36.571429-36.571429-36.571429H36.571429z"  horiz-adv-x="1024" />

    
    <glyph glyph-name="user-center" unicode="&#58965;" d="M89.6-96c-32 0-57.6 25.6-57.6 57.6v44.8c12.8 44.8 57.6 76.8 108.8 96 51.2 19.2 153.6 25.6 217.6 51.2 38.4 19.2 6.4 153.6-12.8 192 76.8-96 211.2-134.4 326.4 0-32-51.2-44.8-172.8-12.8-192 57.6-25.6 166.4-32 217.6-51.2 51.2-19.2 96-51.2 108.8-96 6.4-12.8 6.4-32 0-44.8 0-32-25.6-57.6-51.2-57.6H89.6zM710.4 467.2c-25.6 0 0 32 6.4 70.4 6.4 38.4-6.4 64 19.2 64 25.6 6.4 51.2-25.6 44.8-64-6.4-38.4-44.8-70.4-70.4-70.4zM307.2 467.2c32 0 6.4 32 0 70.4-6.4 38.4 6.4 64-25.6 70.4-32 0-51.2-25.6-44.8-64 6.4-44.8 38.4-76.8 70.4-76.8zM512 224c128 0 192 140.8 217.6 345.6C748.8 780.8 659.2 864 512 864s-236.8-83.2-224-320c32-179.2 102.4-320 224-320z"  horiz-adv-x="1024" />

    
    <glyph glyph-name="logout" unicode="&#58966;" d="M288 748.8v-198.4c0-12.8 0-19.2-6.4-32-38.4-70.4-57.6-121.6-57.6-166.4C224 192 352 64 512 64s288 128 288 288c0 44.8-19.2 96-57.6 166.4-6.4 6.4-6.4 19.2-6.4 32V748.8c0 25.6 19.2 19.2 25.6 19.2 140.8-83.2 230.4-236.8 230.4-409.6 0-262.4-217.6-480-480-480S32 96 32 358.4C32 531.2 121.6 678.4 256 768c12.8 0 32 0 32-19.2zM480 896h64c38.4 0 64-25.6 64-64v-384c0-38.4-25.6-64-64-64h-64c-38.4 0-64 25.6-64 64V832c0 38.4 25.6 64 64 64z"  horiz-adv-x="1024" />

    
    <glyph glyph-name="menui-expand" unicode="&#58967;" d="M967.111111 99.55555600000002c34.133333 0 56.888889-22.755556 56.888889-56.888889s-22.755556-56.888889-56.888889-56.888889H56.888889c-34.133333 0-56.888889 22.755556-56.888889 56.888889s22.755556 56.888889 56.888889 56.888889h910.222222zM210.488889 537.6c11.377778 0 17.066667-5.688889 17.066667-17.066667v-273.066666c0-5.688889 0-5.688889-5.688889-11.377778s-17.066667-11.377778-22.755556-5.688889L17.066667 372.62222199999997l-5.688889 5.688889c0 5.688889 0 11.377778 5.688889 17.066667l182.044444 136.533333c5.688889 5.688889 5.688889 5.688889 11.377778 5.688889zM910.222222 440.888889c34.133333 0 56.888889-22.755556 56.888889-56.888889s-22.755556-56.888889-56.888889-56.888889H398.222222c-34.133333 0-56.888889 22.755556-56.888889 56.888889s22.755556 56.888889 56.888889 56.888889h512z m56.888889 341.333333c34.133333 0 56.888889-22.755556 56.888889-56.888889s-22.755556-56.888889-56.888889-56.888889H56.888889c-34.133333 0-56.888889 22.755556-56.888889 56.888889s22.755556 56.888889 56.888889 56.888889h910.222222z"  horiz-adv-x="1024" />

    
    <glyph glyph-name="message" unicode="&#58968;" d="M729.6 64c-12.8-108.8-108.8-192-224-192s-204.8 83.2-224 192h448zM512 774.4c51.2 0 96-25.6 96 25.6S563.2 896 512 896c-57.6 0-96-44.8-96-96s38.4-25.6 96-25.6zM512 832c192 0 352-160 352-352V192l51.2-70.4c25.6-38.4 12.8-83.2-19.2-108.8-12.8-6.4-25.6-12.8-44.8-12.8H172.8c-44.8 0-76.8 32-76.8 76.8 0 12.8 6.4 32 12.8 44.8l51.2 70.4V480C160 672 313.6 832 512 832z"  horiz-adv-x="1024" />

    
    <glyph glyph-name="theme" unicode="&#58969;" d="M512-64H256c-12.8 0-25.6 12.8-32 25.6v448l-76.8-57.6c-12.8-6.4-32 0-44.8 12.8v6.4l-96 192c-6.4 6.4-6.4 19.2 0 25.6l6.4 6.4 230.4 230.4S249.6 832 256 832h128c12.8 0 25.6-12.8 32-25.6 12.8-44.8 38.4-70.4 83.2-70.4H512c57.6 0 83.2 19.2 96 70.4 6.4 12.8 19.2 25.6 32 25.6h121.6c6.4 0 19.2-6.4 25.6-6.4l230.4-230.4c6.4-12.8 6.4-25.6 0-38.4l-96-192c-6.4-19.2-32-25.6-44.8-12.8l-76.8 51.2v-441.6c0-19.2-12.8-32-32-32H256h256zM512 640m-64 0a64 64 0 1 1 128 0 64 64 0 1 1-128 0ZM512 640c-32 0-32-32-32-32L448 268.79999999999995c0-6.4 0-12.8 6.4-19.2l44.8-51.2c0-6.4 6.4-6.4 12.8-6.4s12.8 0 12.8 6.4l44.8 51.2c6.4 6.4 6.4 12.8 6.4 19.2l-32 339.2S544 640 512 640"  horiz-adv-x="1024" />

    
    <glyph glyph-name="language" unicode="&#58970;" d="M352 832h576c38.4 0 64-25.6 64-64v-448c0-38.4-25.6-64-64-64h-576c-38.4 0-64 25.6-64 64V768c0 38.4 25.6 64 64 64zM96 640h704c38.4 0 64-25.6 64-64v-576c0-38.4-25.6-64-64-64h-704c-38.4 0-64 25.6-64 64V576c0 38.4 25.6 64 64 64z"  horiz-adv-x="1024" />

    
    <glyph glyph-name="menu-collapsed" unicode="&#58971;" d="M967.111111 99.55555600000002c34.133333 0 56.888889-22.755556 56.888889-56.888889s-22.755556-56.888889-56.888889-56.888889H56.888889c-34.133333 0-56.888889 22.755556-56.888889 56.888889s22.755556 56.888889 56.888889 56.888889h910.222222zM17.066667 537.6c5.688889 0 5.688889 0 11.377777-5.688889l182.044445-136.533333c5.688889-5.688889 5.688889-11.377778 0-22.755556l-5.688889-5.688889-182.044444-136.533333c-5.688889-5.688889-17.066667-5.688889-22.755556 5.688889v284.444444c0 11.377778 5.688889 17.066667 17.066667 17.066667zM910.222222 440.888889c34.133333 0 56.888889-22.755556 56.888889-56.888889s-22.755556-56.888889-56.888889-56.888889H398.222222c-34.133333 0-56.888889 22.755556-56.888889 56.888889s22.755556 56.888889 56.888889 56.888889h512z m56.888889 341.333333c34.133333 0 56.888889-22.755556 56.888889-56.888889s-22.755556-56.888889-56.888889-56.888889H56.888889c-34.133333 0-56.888889 22.755556-56.888889 56.888889s22.755556 56.888889 56.888889 56.888889h910.222222z"  horiz-adv-x="1024" />

    
    <glyph glyph-name="lock-screen" unicode="&#58972;" d="M512 896c160 0 288-128 288-288V512h-576V608C224 768 352 896 512 896z m0-128C422.4 768 352 697.6 352 608V576h320v32C672 697.6 601.6 768 512 768zM160 576h704c38.4 0 64-25.6 64-64v-531.2c0-25.6-19.2-51.2-44.8-64-115.2-25.6-236.8-44.8-371.2-44.8-134.4 0-256 19.2-371.2 51.2-25.6 6.4-44.8 32-44.8 64V512c0 38.4 25.6 64 64 64zM512 320c51.2 0 96-44.8 96-96 0-44.8-25.6-76.8-64-89.6v-38.4c0-19.2-12.8-32-32-32s-32 12.8-32 32v38.4c-38.4 12.8-64 51.2-64 89.6C416 275.20000000000005 460.8 320 512 320z"  horiz-adv-x="1024" />

    
    <glyph glyph-name="group" unicode="&#58973;" d="M64 896h320c38.4 0 64-25.6 64-64v-320c0-38.4-25.6-64-64-64H64c-38.4 0-64 25.6-64 64V832c0 38.4 25.6 64 64 64zM640 896h320c38.4 0 64-25.6 64-64v-320c0-38.4-25.6-64-64-64h-320c-38.4 0-64 25.6-64 64V832c0 38.4 25.6 64 64 64zM64 320h320c38.4 0 64-25.6 64-64v-320c0-38.4-25.6-64-64-64H64c-38.4 0-64 25.6-64 64v320c0 38.4 25.6 64 64 64zM640 320h320c38.4 0 64-25.6 64-64v-320c0-38.4-25.6-64-64-64h-320c-38.4 0-64 25.6-64 64v320c0 38.4 25.6 64 64 64z"  horiz-adv-x="1024" />

    
    <glyph glyph-name="group-down" unicode="&#58974;" d="M1894.4 716.8l-716.8-768c-25.6-51.2-102.4-76.8-153.6-76.8s-128 25.6-153.6 76.8L153.6 716.8C128 768 128 819.2 153.6 870.4 179.2 896 204.8 896 230.4 896h1587.2c51.2 0 102.4-51.2 102.4-102.4 0-25.6 0-51.2-25.6-76.8z"  horiz-adv-x="2048" />

    
    <glyph glyph-name="pic" unicode="&#58958;" d="M128 832h576l192-198.4V-64H128zM678.4 896c19.2 0 32-6.4 44.8-19.2l217.6-217.6c12.8-12.8 19.2-25.6 19.2-44.8V-64c0-38.4-25.6-64-64-64H128c-38.4 0-64 25.6-64 64V832c0 38.4 25.6 64 64 64h550.4z m0-64H128v-896h768V614.4L678.4 832zM723.2 512c25.6 0 44.8-19.2 44.8-38.4v-313.6c0-19.2-12.8-32-32-32h-448c-19.2 0-32 12.8-32 32V473.6c0 19.2 19.2 38.4 44.8 38.4h422.4zM371.2 294.4l-51.2-32V192h384V268.79999999999995l-115.2-38.4c-19.2-6.4-38.4-6.4-51.2 6.4l-102.4 57.6c-19.2 6.4-44.8 6.4-64 0zM704 448H320v-108.8l51.2 32c19.2 12.8 44.8 12.8 64 0l108.8-64c12.8-6.4 32-12.8 51.2-6.4l108.8 32V448z m-96-44.8c12.8 0 19.2-6.4 25.6-12.8 6.4-12.8 6.4-19.2 0-32s-12.8-19.2-25.6-19.2c-19.2 0-32 19.2-32 32 0 19.2 12.8 32 32 32zM678.4 896c19.2 0 32-6.4 44.8-19.2l217.6-217.6c12.8-12.8 19.2-25.6 19.2-44.8V576h-224C684.8 576 640 620.8 640 672V896h38.4z m192-256L704 806.4v-134.4c0-12.8 12.8-25.6 25.6-32h140.8zM128 832h512v-64H128zM128 0h768v-64H128zM768 576h128v-64h-128z"  horiz-adv-x="1024" />

    
    <glyph glyph-name="word" unicode="&#58959;" d="M128 832h576l192-198.4V-64H128zM678.4 896c19.2 0 32-6.4 44.8-19.2l217.6-217.6c12.8-12.8 19.2-25.6 19.2-44.8V-64c0-38.4-25.6-64-64-64H128c-38.4 0-64 25.6-64 64V832c0 38.4 25.6 64 64 64h550.4z m0-64H128v-896h768V614.4L678.4 832zM678.4 896c19.2 0 32-6.4 44.8-19.2l217.6-217.6c12.8-12.8 19.2-25.6 19.2-44.8V576h-224C684.8 576 640 620.8 640 672V896h38.4z m192-256L704 806.4v-134.4c0-12.8 12.8-25.6 25.6-32h140.8zM288 448h448c19.2 0 32-12.8 32-32s-12.8-32-32-32h-448c-19.2 0-32 12.8-32 32s12.8 32 32 32zM288 320h448c19.2 0 32-12.8 32-32s-12.8-32-32-32h-448c-19.2 0-32 12.8-32 32s12.8 32 32 32zM288 192h448c19.2 0 32-12.8 32-32s-12.8-32-32-32h-448c-19.2 0-32 12.8-32 32s12.8 32 32 32zM128 832h512v-64H128zM128 0h768v-64H128zM768 576h128v-64h-128z"  horiz-adv-x="1024" />

    
    <glyph glyph-name="PDF" unicode="&#58960;" d="M128 832h576l192-198.4V-64H128zM678.4 896c19.2 0 32-6.4 44.8-19.2l217.6-217.6c12.8-12.8 19.2-25.6 19.2-44.8V-64c0-38.4-25.6-64-64-64H128c-38.4 0-64 25.6-64 64V832c0 38.4 25.6 64 64 64h550.4z m0-64H128v-896h768V614.4L678.4 832zM697.6 192c-38.4 0-76.8 19.2-102.4 44.8-57.6-12.8-115.2-32-166.4-51.2-51.2-83.2-89.6-121.6-128-121.6-6.4 0-12.8 0-19.2 6.4-19.2 6.4-25.6 19.2-25.6 38.4 0 12.8 0 51.2 140.8 108.8 25.6 57.6 51.2 115.2 70.4 172.8-12.8 38.4-51.2 121.6-25.6 160 6.4 19.2 25.6 25.6 44.8 25.6 12.8 0 25.6-6.4 38.4-19.2 12.8-25.6 12.8-76.8-12.8-160 25.6-44.8 51.2-83.2 89.6-115.2 32 6.4 57.6 12.8 89.6 12.8 64 0 76.8-32 76.8-51.2 0-51.2-44.8-51.2-70.4-51.2z m-396.8-89.6c19.2 12.8 38.4 25.6 51.2 44.8-25.6-6.4-38.4-25.6-51.2-44.8z m185.6 428.8h-12.8c-6.4-25.6 0-51.2 6.4-70.4 12.8 19.2 12.8 51.2 6.4 70.4z m12.8-204.8c-12.8-32-32-64-44.8-96 32 12.8 64 19.2 96 25.6h6.4c-25.6 19.2-44.8 44.8-57.6 70.4z m192-76.8h-38.4c12.8-6.4 25.6-12.8 44.8-12.8h25.6c0 6.4-6.4 12.8-32 12.8zM678.4 896c19.2 0 32-6.4 44.8-19.2l217.6-217.6c12.8-12.8 19.2-25.6 19.2-44.8V576h-224C684.8 576 640 620.8 640 672V896h38.4z m192-256L704 806.4v-134.4c0-12.8 12.8-25.6 25.6-32h140.8zM128 832h512v-64H128zM128 0h768v-64H128zM768 576h128v-64h-128z"  horiz-adv-x="1024" />

    
    <glyph glyph-name="audio" unicode="&#58961;" d="M128 832h576l192-198.4V-64H128zM678.4 896c19.2 0 32-6.4 44.8-19.2l217.6-217.6c12.8-12.8 19.2-25.6 19.2-44.8V-64c0-38.4-25.6-64-64-64H128c-38.4 0-64 25.6-64 64V832c0 38.4 25.6 64 64 64h550.4z m0-64H128v-896h768V614.4L678.4 832zM614.4 480l-147.2-51.2c-19.2-6.4-38.4-25.6-38.4-44.8v-172.8s-12.8 6.4-38.4 6.4c-38.4-6.4-64-38.4-64-70.4 0-32 32-51.2 64-44.8 38.4 6.4 64 32 64 64V313.6c0 12.8 12.8 19.2 12.8 19.2L608 384s12.8 6.4 12.8-6.4V256s-12.8 6.4-38.4 6.4c-38.4-6.4-64-32-64-64s32-51.2 64-44.8c38.4 6.4 64 32 64 64V454.4c6.4 19.2-12.8 32-32 25.6zM678.4 896c19.2 0 32-6.4 44.8-19.2l217.6-217.6c12.8-12.8 19.2-25.6 19.2-44.8V576h-224C684.8 576 640 620.8 640 672V896h38.4z m192-256L704 806.4v-134.4c0-12.8 12.8-25.6 25.6-32h140.8zM128 832h512v-64H128zM128 0h768v-64H128zM768 576h128v-64h-128z"  horiz-adv-x="1024" />

    
    <glyph glyph-name="excel" unicode="&#58962;" d="M128 832h576l192-198.4V-64H128zM678.4 896c19.2 0 32-6.4 44.8-19.2l217.6-217.6c12.8-12.8 19.2-25.6 19.2-44.8V-64c0-38.4-25.6-64-64-64H128c-38.4 0-64 25.6-64 64V832c0 38.4 25.6 64 64 64h550.4z m0-64H128v-896h768V614.4L678.4 832zM678.4 896c19.2 0 32-6.4 44.8-19.2l217.6-217.6c12.8-12.8 19.2-25.6 19.2-44.8V576h-224C684.8 576 640 620.8 640 672V896h38.4z m192-256L704 806.4v-134.4c0-12.8 12.8-25.6 25.6-32h140.8zM288 448h448c19.2 0 32-12.8 32-32s-12.8-32-32-32h-448c-19.2 0-32 12.8-32 32s12.8 32 32 32zM288 320h448c19.2 0 32-12.8 32-32s-12.8-32-32-32h-448c-19.2 0-32 12.8-32 32s12.8 32 32 32zM288 448c19.2 0 32-12.8 32-32v-256c0-19.2-12.8-32-32-32s-32 12.8-32 32v256c0 19.2 12.8 32 32 32zM480 448c19.2 0 32-12.8 32-32v-256c0-19.2-12.8-32-32-32s-32 12.8-32 32v256c0 19.2 12.8 32 32 32zM736 448c19.2 0 32-12.8 32-32v-256c0-19.2-12.8-32-32-32s-32 12.8-32 32v256c0 19.2 12.8 32 32 32zM288 192h448c19.2 0 32-12.8 32-32s-12.8-32-32-32h-448c-19.2 0-32 12.8-32 32s12.8 32 32 32zM128 832h512v-64H128zM128 0h768v-64H128zM768 576h128v-64h-128z"  horiz-adv-x="1024" />

    
    <glyph glyph-name="PPT" unicode="&#58963;" d="M128 832h576l192-198.4V-64H128zM678.4 896c19.2 0 32-6.4 44.8-19.2l217.6-217.6c12.8-12.8 19.2-25.6 19.2-44.8V-64c0-38.4-25.6-64-64-64H128c-38.4 0-64 25.6-64 64V832c0 38.4 25.6 64 64 64h550.4z m0-64H128v-896h768V614.4L678.4 832zM678.4 896c19.2 0 32-6.4 44.8-19.2l217.6-217.6c12.8-12.8 19.2-25.6 19.2-44.8V576h-224C684.8 576 640 620.8 640 672V896h38.4z m192-256L704 806.4v-134.4c0-12.8 12.8-25.6 25.6-32h140.8zM512 512v-192h192c0-108.8-83.2-192-192-192s-192 83.2-192 192c0 102.4 76.8 185.6 179.2 192H512z m64 0c70.4 0 121.6-51.2 128-121.6V384H576V512zM128 832h512v-64H128zM128 0h768v-64H128zM768 576h128v-64h-128z"  horiz-adv-x="1024" />

    
    <glyph glyph-name="video" unicode="&#58964;" d="M128 832h576l192-198.4V-64H128zM678.4 896c19.2 0 32-6.4 44.8-19.2l217.6-217.6c12.8-12.8 19.2-25.6 19.2-44.8V-64c0-38.4-25.6-64-64-64H128c-38.4 0-64 25.6-64 64V832c0 38.4 25.6 64 64 64h550.4z m0-64H128v-896h768V614.4L678.4 832zM678.4 896c19.2 0 32-6.4 44.8-19.2l217.6-217.6c12.8-12.8 19.2-25.6 19.2-44.8V576h-224C684.8 576 640 620.8 640 672V896h38.4z m192-256L704 806.4v-134.4c0-12.8 12.8-25.6 25.6-32h140.8zM128 832h512v-64H128zM128 0h768v-64H128zM768 576h128v-64h-128zM723.2 512c25.6 0 44.8-19.2 44.8-38.4v-300.8c0-25.6-19.2-38.4-44.8-38.4H300.8c-25.6-6.4-44.8 12.8-44.8 32V473.6c0 19.2 19.2 38.4 44.8 38.4h422.4zM704 448H320v-256h384V448zM492.8 384l76.8-51.2c6.4 0 6.4-6.4 6.4-12.8s0-12.8-6.4-12.8l-76.8-51.2h-19.2c-6.4 0-6.4 6.4-6.4 12.8V364.79999999999995c0 6.4 6.4 12.8 6.4 12.8 6.4 6.4 12.8 6.4 19.2 6.4z"  horiz-adv-x="1024" />

    
    <glyph glyph-name="charts-bar" unicode="&#58954;" d="M142.222222 668.444444c17.066667 0 28.444444-11.377778 28.444445-28.444444v-682.666667c0-17.066667-11.377778-28.444444-28.444445-28.444444h-113.777778c-17.066667 0-28.444444 11.377778-28.444444 28.444444v682.666667c0 17.066667 11.377778 28.444444 28.444444 28.444444h113.777778z m284.444445-227.555555c17.066667 0 28.444444-11.377778 28.444444-28.444445v-455.111111c0-17.066667-11.377778-28.444444-28.444444-28.444444h-113.777778c-17.066667 0-28.444444 11.377778-28.444445 28.444444v455.111111c0 17.066667 11.377778 28.444444 28.444445 28.444445h113.777778z m284.444444 455.111111c17.066667 0 28.444444-11.377778 28.444445-28.444444v-910.222223c0-17.066667-11.377778-28.444444-28.444445-28.444444h-113.777778c-17.066667 0-28.444444 11.377778-28.444444 28.444444V867.555556c0 17.066667 11.377778 28.444444 28.444444 28.444444h113.777778z m284.444445-341.333333c17.066667 0 28.444444-11.377778 28.444444-28.444445v-568.888889c0-17.066667-11.377778-28.444444-28.444444-28.444444h-113.777778c-17.066667 0-28.444444 11.377778-28.444445 28.444444v568.888889c0 17.066667 11.377778 28.444444 28.444445 28.444445h113.777778z"  horiz-adv-x="1024" />

    
    <glyph glyph-name="charts-pie" unicode="&#58955;" d="M426.666667 890.311111v-534.755555l460.8-210.488889c-85.333333-130.844444-233.244444-216.177778-403.911111-216.177778C216.177778-71.11111100000005 0 145.06666700000005 0 412.444444 0 662.7555560000001 187.733333 867.555556 426.666667 890.311111zM512 896c256-17.066667 455.111111-227.555556 455.111111-483.555556 0-62.577778-11.377778-125.155556-34.133333-182.044444L512 423.822222V896z"  horiz-adv-x="1024" />

    
    <glyph glyph-name="card" unicode="&#58956;" d="M227.555556 156.44444399999998c34.133333 0 56.888889-22.755556 56.888888-56.888888v-113.777778c0-34.133333-22.755556-56.888889-56.888888-56.888889H113.777778c-34.133333 0-56.888889 22.755556-56.888889 56.888889v113.777778c0 34.133333 22.755556 56.888889 56.888889 56.888888h113.777778z m341.333333 0c34.133333 0 56.888889-22.755556 56.888889-56.888888v-113.777778c0-34.133333-22.755556-56.888889-56.888889-56.888889H455.111111c-34.133333 0-56.888889 22.755556-56.888889 56.888889v113.777778c0 34.133333 22.755556 56.888889 56.888889 56.888888h113.777778z m341.333333 0c34.133333 0 56.888889-22.755556 56.888889-56.888888v-113.777778c0-34.133333-22.755556-56.888889-56.888889-56.888889h-113.777778c-34.133333 0-56.888889 22.755556-56.888888 56.888889v113.777778c0 34.133333 22.755556 56.888889 56.888888 56.888888h113.777778zM227.555556 497.777778c34.133333 0 56.888889-22.755556 56.888888-56.888889v-113.777778c0-34.133333-22.755556-56.888889-56.888888-56.888889H113.777778c-34.133333 0-56.888889 22.755556-56.888889 56.888889V440.888889c0 34.133333 22.755556 56.888889 56.888889 56.888889h113.777778z m341.333333 0c34.133333 0 56.888889-22.755556 56.888889-56.888889v-113.777778c0-34.133333-22.755556-56.888889-56.888889-56.888889H455.111111c-34.133333 0-56.888889 22.755556-56.888889 56.888889V440.888889c0 34.133333 22.755556 56.888889 56.888889 56.888889h113.777778z m341.333333 0c34.133333 0 56.888889-22.755556 56.888889-56.888889v-113.777778c0-34.133333-22.755556-56.888889-56.888889-56.888889h-113.777778c-34.133333 0-56.888889 22.755556-56.888888 56.888889V440.888889c0 34.133333 22.755556 56.888889 56.888888 56.888889h113.777778zM227.555556 839.111111c34.133333 0 56.888889-22.755556 56.888888-56.888889v-113.777778c0-34.133333-22.755556-56.888889-56.888888-56.888888H113.777778c-34.133333 0-56.888889 22.755556-56.888889 56.888888V782.222222c0 34.133333 22.755556 56.888889 56.888889 56.888889h113.777778z m341.333333 0c34.133333 0 56.888889-22.755556 56.888889-56.888889v-113.777778c0-34.133333-22.755556-56.888889-56.888889-56.888888H455.111111c-34.133333 0-56.888889 22.755556-56.888889 56.888888V782.222222c0 34.133333 22.755556 56.888889 56.888889 56.888889h113.777778z m341.333333 0c34.133333 0 56.888889-22.755556 56.888889-56.888889v-113.777778c0-34.133333-22.755556-56.888889-56.888889-56.888888h-113.777778c-34.133333 0-56.888889 22.755556-56.888888 56.888888V782.222222c0 34.133333 22.755556 56.888889 56.888888 56.888889h113.777778z"  horiz-adv-x="1024" />

    
    <glyph glyph-name="list" unicode="&#58957;" d="M995.555556 156.44444399999998c17.066667 0 28.444444-11.377778 28.444444-28.444444v-113.777778c0-17.066667-11.377778-28.444444-28.444444-28.444444h-682.666667c-17.066667 0-28.444444 11.377778-28.444445 28.444444v113.777778c0 17.066667 11.377778 28.444444 28.444445 28.444444h682.666667z m-796.444445 0c17.066667 0 28.444444-11.377778 28.444445-28.444444v-113.777778c0-17.066667-11.377778-28.444444-28.444445-28.444444h-170.666667c-17.066667 0-28.444444 11.377778-28.444444 28.444444v113.777778c0 17.066667 11.377778 28.444444 28.444444 28.444444h170.666667z m796.444445 341.333334c17.066667 0 28.444444-11.377778 28.444444-28.444445v-113.777777c0-17.066667-11.377778-28.444444-28.444444-28.444445h-682.666667c-17.066667 0-28.444444 11.377778-28.444445 28.444445v113.777777c0 17.066667 11.377778 28.444444 28.444445 28.444445h682.666667z m-796.444445 0c17.066667 0 28.444444-11.377778 28.444445-28.444445v-113.777777c0-17.066667-11.377778-28.444444-28.444445-28.444445h-170.666667c-17.066667 0-28.444444 11.377778-28.444444 28.444445v113.777777c0 17.066667 11.377778 28.444444 28.444444 28.444445h170.666667z m796.444445 341.333333c17.066667 0 28.444444-11.377778 28.444444-28.444444v-113.777778c0-17.066667-11.377778-28.444444-28.444444-28.444445h-682.666667c-17.066667 0-28.444444 11.377778-28.444445 28.444445v113.777778c0 17.066667 11.377778 28.444444 28.444445 28.444444h682.666667z m-796.444445 0c17.066667 0 28.444444-11.377778 28.444445-28.444444v-113.777778c0-17.066667-11.377778-28.444444-28.444445-28.444445h-170.666667C11.377778 668.444444 0 679.822222 0 696.8888890000001v113.777778c0 17.066667 11.377778 28.444444 28.444444 28.444444h170.666667z"  horiz-adv-x="1024" />

    
    <glyph glyph-name="status-normal" unicode="&#58949;" d="M512 896C230.4 896 0 665.6 0 384s230.4-512 512-512 512 230.4 512 512S793.6 896 512 896zM512 448v-290.133333c0-17.066667 12.8-34.133333 34.133333-34.133334s34.133333 12.8 34.133334 34.133334V477.866667c0 17.066667-12.8 34.133333-34.133334 34.133333h-64c-17.066667 0-34.133333-12.8-34.133333-34.133333s12.8-34.133333 34.133333-34.133334h29.866667zM418.133333 192h256c17.066667 0 34.133333-12.8 34.133334-34.133333s-17.066667-29.866667-34.133334-29.866667h-256c-21.333333 0-34.133333 12.8-34.133333 34.133333s12.8 29.866667 34.133333 29.866667zM469.333333 640h85.333334c12.8 0 21.333333-8.533333 21.333333-21.333333V597.333333c0-12.8-8.533333-21.333333-21.333333-21.333333h-85.333334c-12.8 0-21.333333 8.533333-21.333333 21.333333v21.333334c0 12.8 8.533333 21.333333 21.333333 21.333333z"  horiz-adv-x="1024" />

    
    <glyph glyph-name="status-error" unicode="&#58950;" d="M512 896C230.4 896 0 665.6 0 384s230.4-512 512-512 512 230.4 512 512S793.6 896 512 896zM298.666667 550.4l384-384c12.8-12.8 34.133333-12.8 46.933333 0 12.8 12.8 12.8 34.133333 0 46.933333l-384 384c-12.8 12.8-34.133333 12.8-46.933333 0-12.8-12.8-12.8-34.133333 0-46.933333zM725.333333 554.666667l-384-384c-12.8-12.8-34.133333-12.8-46.933333 0-12.8 12.8-12.8 34.133333 0 46.933333l384 384c12.8 12.8 34.133333 12.8 46.933333 0 12.8-17.066667 12.8-34.133333 0-46.933333z"  horiz-adv-x="1024" />

    
    <glyph glyph-name="status-question" unicode="&#58951;" d="M512 896C230.4 896 0 665.6 0 384s230.4-512 512-512 512 230.4 512 512-230.4 512-512 512zM531.2 256v19.2c0 25.6 6.4 44.8 12.8 57.6 12.8 19.2 19.2 32 38.4 51.2 38.4 32 57.6 51.2 70.4 64 19.2 25.6 32 57.6 32 96 0 51.2-12.8 89.6-44.8 115.2-38.4 32-76.8 44.8-128 44.8-64 0-108.8-19.2-140.8-57.6C332.8 614.4 320 569.6 320 512h64c0 38.4 6.4 70.4 25.6 96 19.2 25.6 51.2 38.4 89.6 38.4 32 0 64-6.4 83.2-32 19.2-19.2 25.6-44.8 25.6-76.8 0-25.6-6.4-44.8-25.6-64 0-6.4-6.4-19.2-19.2-32-44.8-38.4-70.4-70.4-83.2-96-12.8-19.2-19.2-44.8-19.2-70.4v-19.2h70.4z m-32-160c12.8 0 25.6 6.4 38.4 12.8 12.8 6.4 12.8 19.2 12.8 38.4 0 12.8-6.4 25.6-12.8 32-12.8 12.8-25.6 19.2-38.4 19.2s-25.6-6.4-38.4-12.8c-12.8-12.8-12.8-25.6-12.8-38.4s6.4-25.6 12.8-38.4c12.8-6.4 19.2-12.8 38.4-12.8z"  horiz-adv-x="1024" />

    
    <glyph glyph-name="status-success" unicode="&#58952;" d="M512 896C230.4 896 0 665.6 0 384s230.4-512 512-512 512 230.4 512 512S793.6 896 512 896zM311.466667 439.466667c-12.8 12.8-34.133333 12.8-46.933334 0-8.533333-12.8-8.533333-34.133333 0-46.933334l157.866667-157.866666c12.8-12.8 34.133333-12.8 46.933333 0l285.866667 285.866666c12.8 12.8 12.8 34.133333 0 46.933334s-34.133333 12.8-46.933333 0l-264.533334-264.533334-132.266666 136.533334z"  horiz-adv-x="1024" />

    
    <glyph glyph-name="status-warning" unicode="&#58953;" d="M512 896C230.4 896 0 665.6 0 384s230.4-512 512-512 512 230.4 512 512S793.6 896 512 896zM512 674.133333V298.66666699999996c0-17.066667 12.8-34.133333 34.133333-34.133334s34.133333 12.8 34.133334 34.133334V674.133333c0 17.066667-12.8 34.133333-34.133334 34.133334s-34.133333-17.066667-34.133333-34.133334zM533.333333 192h21.333334c12.8 0 21.333333-8.533333 21.333333-21.333333v-21.333334c0-12.8-8.533333-21.333333-21.333333-21.333333h-21.333334c-12.8 0-21.333333 8.533333-21.333333 21.333333V170.66666699999996c0 12.8 8.533333 21.333333 21.333333 21.333333z"  horiz-adv-x="1024" />

    
    <glyph glyph-name="tree-down" unicode="&#58944;" d="M672 768c19.2 0 32-12.8 32-32V320h160c6.4-6.4 6.4-19.2 0-25.6l-332.8-390.4-6.4-6.4c-12.8-12.8-32-12.8-44.8 6.4l-326.4 384c0 6.4-6.4 6.4-6.4 12.8 6.4 12.8 12.8 19.2 25.6 19.2H320V736c0 19.2 12.8 32 32 32h320z"  horiz-adv-x="1024" />

    
    <glyph glyph-name="tree-up" unicode="&#58945;" d="M531.2 870.4s6.4 0 0 0l339.2-390.4c6.4-6.4 6.4-19.2 0-25.6-6.4-6.4-12.8-6.4-19.2-6.4H704v-416c0-19.2-12.8-32-32-32h-320c-19.2 0-32 12.8-32 32V448H172.8c-12.8 0-19.2 6.4-19.2 19.2 0 6.4 0 6.4 6.4 12.8L492.8 870.4c6.4 12.8 25.6 12.8 38.4 0z"  horiz-adv-x="1024" />

    
    <glyph glyph-name="tree-edit" unicode="&#58946;" d="M896 128c38.4 0 64-25.6 64-64s-25.6-64-64-64H192c-38.4 0-64 25.6-64 64s25.6 64 64 64h704zM812.8 825.6l89.6-89.6c25.6-25.6 25.6-64 0-89.6l-435.2-435.2c-6.4-12.8-25.6-19.2-38.4-19.2H307.2c-12.8 0-25.6 12.8-32 25.6v128c0 19.2 6.4 32 19.2 44.8l435.2 435.2c19.2 25.6 64 25.6 83.2 0z"  horiz-adv-x="1024" />

    
    <glyph glyph-name="tree-add" unicode="&#58947;" d="M512 832c38.4 0 64-25.6 64-64v-320h320c38.4 0 64-25.6 64-64s-25.6-64-64-64H576v-320c0-38.4-25.6-64-64-64s-64 25.6-64 64V320H128c-38.4 0-64 25.6-64 64s25.6 64 64 64h320V768c0 38.4 25.6 64 64 64z"  horiz-adv-x="1024" />

    
    <glyph glyph-name="tree-delete" unicode="&#58948;" d="M89.6 576c-38.4 0-64 25.6-64 64s25.6 64 64 64h192c0 70.4 57.6 128 128 128h192c70.4 0 121.6-51.2 128-121.6V704h192c38.4 0 64-25.6 64-64s-25.6-64-64-64h-64v-576c0-38.4-25.6-64-64-64h-576c-38.4 0-64 25.6-64 64V576h-64z m224 0c-19.2 0-32-12.8-32-32v-448c0-19.2 12.8-32 32-32s32 12.8 32 32v448c0 19.2-12.8 32-32 32z m192 0c-19.2 0-32-12.8-32-32v-448c0-19.2 12.8-32 32-32s32 12.8 32 32v448c0 19.2-12.8 32-32 32z m192 0c-19.2 0-32-12.8-32-32v-448c0-19.2 12.8-32 32-32s32 12.8 32 32v448c0 19.2-12.8 32-32 32z"  horiz-adv-x="1024" />

    
    <glyph glyph-name="question" unicode="&#58935;" d="M512 896C230.4 896 0 665.6 0 384s230.4-512 512-512 512 230.4 512 512S793.6 896 512 896zM558.08 250.88v15.36c0 20.48 5.12 40.96 15.36 61.44 10.24 15.36 20.48 30.72 40.96 46.08 40.96 35.84 66.56 61.44 76.8 71.68 20.48 30.72 35.84 66.56 35.84 112.64 0 56.32-20.48 97.28-56.32 133.12-35.84 30.72-87.04 51.2-143.36 51.2-71.68 0-122.88-20.48-163.84-61.44-35.84-35.84-56.32-87.04-56.32-153.6h97.28c0 40.96 10.24 71.68 25.6 92.16 20.48 25.6 51.2 40.96 92.16 40.96 30.72 0 61.44-10.24 76.8-25.6 15.36-20.48 25.6-46.08 25.6-81.92 0-25.6-10.24-46.08-25.6-66.56l-15.36-15.36c-56.32-51.2-92.16-87.04-102.4-112.64-15.36-25.6-20.48-56.32-20.48-92.16v-15.36h97.28z m-51.2-179.2c20.48 0 35.84 5.12 46.08 20.48 15.36 15.36 20.48 30.72 20.48 46.08 0 20.48-5.12 35.84-20.48 46.08-15.36 15.36-30.72 20.48-51.2 20.48s-35.84-5.12-46.08-20.48c-15.36-10.24-20.48-25.6-20.48-46.08s5.12-35.84 20.48-46.08c20.48-15.36 35.84-20.48 51.2-20.48z"  horiz-adv-x="1024" />

    
    <glyph glyph-name="star" unicode="&#58936;" d="M522.971429 62.17142899999999l-277.942858-146.285715c-14.628571-7.314286-36.571429 0-51.2 14.628572-7.314286 7.314286-7.314286 14.628571-7.314285 21.942857l51.2 307.2-226.742857 219.428571c-14.628571 14.628571-14.628571 36.571429 0 51.2 7.314286 7.314286 14.628571 7.314286 21.942857 7.314286l314.514285 43.885714L486.4 866.742857c14.628571 29.257143 36.571429 36.571429 51.2 21.942857 7.314286 0 14.628571-7.314286 14.628571-14.628571l138.971429-285.257143 314.514286-43.885714c21.942857 0 36.571429-21.942857 29.257143-43.885715 0-7.314286-7.314286-14.628571-7.314286-21.942857l-226.742857-219.428571 51.2-307.2c0-21.942857-7.314286-36.571429-29.257143-43.885714-7.314286 0-14.628571 0-21.942857 7.314285l-277.942857 146.285715z"  horiz-adv-x="1036" />

    
    <glyph glyph-name="enlarge" unicode="&#58937;" d="M910.222222 702.577778l-273.066666-273.066667c-22.755556-22.755556-56.888889-22.755556-79.644445 0-22.755556 22.755556-22.755556 56.888889 0 79.644445L830.577778 782.222222H568.888889c-34.133333 0-56.888889 22.755556-56.888889 56.888889s22.755556 56.888889 56.888889 56.888889h398.222222c17.066667 0 28.444444-5.688889 39.822222-17.066667 11.377778-11.377778 17.066667-22.755556 17.066667-39.822222v-398.222222c0-34.133333-22.755556-56.888889-56.888889-56.888889s-56.888889 22.755556-56.888889 56.888889V702.577778zM113.777778 65.42222200000003l244.622222 244.622222c22.755556 22.755556 56.888889 22.755556 79.644444 0 22.755556-22.755556 22.755556-56.888889 0-79.644444L193.422222-14.222221999999988H455.111111c34.133333 0 56.888889-22.755556 56.888889-56.888889s-22.755556-56.888889-56.888889-56.888889H56.888889c-11.377778 0-22.755556 5.688889-34.133333 11.377778-11.377778 11.377778-22.755556 28.444444-22.755556 45.511111v398.222222c0 34.133333 22.755556 56.888889 56.888889 56.888889s56.888889-22.755556 56.888889-56.888889v-261.688889z"  horiz-adv-x="1024" />

    
    <glyph glyph-name="shrink" unicode="&#58938;" d="M398.222222 190.57777799999997l-273.066666-273.066667c-22.755556-22.755556-56.888889-22.755556-79.644445 0-22.755556 22.755556-22.755556 56.888889 0 79.644445L318.577778 270.222222H56.888889c-34.133333 0-56.888889 22.755556-56.888889 56.888889s22.755556 56.888889 56.888889 56.888889h398.222222c17.066667 0 28.444444-5.688889 39.822222-17.066667s17.066667-22.755556 17.066667-39.822222v-398.222222c0-34.133333-22.755556-56.888889-56.888889-56.888889s-56.888889 22.755556-56.888889 56.888889v261.688889z m227.555556 386.844444l244.622222 244.622222c22.755556 22.755556 56.888889 22.755556 79.644444 0s22.755556-56.888889 0-79.644444L705.422222 497.777778H967.111111c34.133333 0 56.888889-22.755556 56.888889-56.888889s-22.755556-56.888889-56.888889-56.888889h-398.222222c-11.377778 0-22.755556 5.688889-34.133333 11.377778-11.377778 11.377778-22.755556 28.444444-22.755556 45.511111V839.111111c0 34.133333 22.755556 56.888889 56.888889 56.888889s56.888889-22.755556 56.888889-56.888889v-261.688889z"  horiz-adv-x="1024" />

    
    <glyph glyph-name="plus" unicode="&#58939;" d="M512 896c51.2 0 85.333333-34.133333 85.333333-85.333333v-341.333334h341.333334c51.2 0 85.333333-34.133333 85.333333-85.333333s-34.133333-85.333333-85.333333-85.333333H597.333333v-341.333334c0-51.2-34.133333-85.333333-85.333333-85.333333s-85.333333 34.133333-85.333333 85.333333V298.66666699999996H85.333333c-51.2 0-85.333333 34.133333-85.333333 85.333333s34.133333 85.333333 85.333333 85.333333h341.333334V810.666667c0 51.2 34.133333 85.333333 85.333333 85.333333z"  horiz-adv-x="1024" />

    
    <glyph glyph-name="cut" unicode="&#58940;" d="M85.333333 469.333333h853.333334c51.2 0 85.333333-34.133333 85.333333-85.333333s-34.133333-85.333333-85.333333-85.333333H85.333333c-51.2 0-85.333333 34.133333-85.333333 85.333333s34.133333 85.333333 85.333333 85.333333z"  horiz-adv-x="1024" />

    
    <glyph glyph-name="info" unicode="&#58941;" d="M512 896C230.4 896 0 665.6 0 384s230.4-512 512-512 512 230.4 512 512S793.6 896 512 896zM558.08 327.67999999999995l20.48 332.8c5.12 46.08-25.6 76.8-66.56 81.92h-5.12c-40.96 0-71.68-30.72-71.68-71.68v-5.12l25.6-337.92c0-25.6 25.6-46.08 51.2-46.08s46.08 20.48 46.08 46.08z m-51.2-256c20.48 0 35.84 5.12 46.08 20.48 15.36 15.36 20.48 30.72 20.48 46.08 0 20.48-5.12 35.84-20.48 46.08-15.36 15.36-30.72 20.48-51.2 20.48s-35.84-5.12-46.08-20.48c-15.36-10.24-20.48-25.6-20.48-46.08s5.12-35.84 20.48-46.08c20.48-15.36 35.84-20.48 51.2-20.48z"  horiz-adv-x="1024" />

    
    <glyph glyph-name="i" unicode="&#58942;" d="M512 896C226.742857 896 0 669.257143 0 384s226.742857-512 512-512 512 226.742857 512 512-226.742857 512-512 512zM512 530.285714c43.885714 0 73.142857-29.257143 73.142857-73.142857v-365.714286c0-43.885714-29.257143-73.142857-73.142857-73.142857s-73.142857 29.257143-73.142857 73.142857V457.142857c0 43.885714 29.257143 73.142857 73.142857 73.142857zM512 749.714286c43.885714 0 73.142857-29.257143 73.142857-73.142857s-29.257143-73.142857-73.142857-73.142858-73.142857 29.257143-73.142857 73.142858 29.257143 73.142857 73.142857 73.142857z"  horiz-adv-x="1024" />

    
    <glyph glyph-name="star-line" unicode="&#58943;" d="M522.971429 62.17142899999999l-277.942858-146.285715c-14.628571-7.314286-36.571429 0-51.2 14.628572-7.314286 7.314286-7.314286 14.628571-7.314285 21.942857l51.2 307.2-226.742857 219.428571c-14.628571 14.628571-14.628571 36.571429 0 51.2 7.314286 7.314286 14.628571 7.314286 21.942857 7.314286l314.514285 43.885714L486.4 866.742857c14.628571 29.257143 36.571429 36.571429 51.2 21.942857 7.314286 0 14.628571-7.314286 14.628571-14.628571l138.971429-285.257143 314.514286-43.885714c21.942857 0 36.571429-21.942857 29.257143-43.885715 0-7.314286-7.314286-14.628571-7.314286-21.942857l-226.742857-219.428571 51.2-307.2c0-21.942857-7.314286-36.571429-29.257143-43.885714-7.314286 0-14.628571 0-21.942857 7.314285l-277.942857 146.285715z m-248.685715-43.885715l212.114286 109.714286c21.942857 14.628571 43.885714 14.628571 65.828571 0l212.114286-109.714286-36.571428 234.057143c-7.314286 21.942857 7.314286 51.2 21.942857 65.828572l175.542857 168.228571-241.371429 36.571429c-21.942857 0-43.885714 21.942857-58.514285 36.571428L522.971429 778.971429l-109.714286-219.428572c-7.314286-21.942857-29.257143-36.571429-51.2-36.571428l-241.371429-36.571429 175.542857-168.228571c14.628571-14.628571 21.942857-43.885714 21.942858-65.828572L274.285714 18.285713999999984z"  horiz-adv-x="1036" />

    
    <glyph glyph-name="bedge-error" unicode="&#58926;" d="M20.48 896h1003.52L0-111.61599999999999V875.52c0 12.288 8.192 20.48 20.48 20.48zM423.936 443.392l-4.096 20.48c-26.624-8.192-53.248-8.192-79.872-6.144-8.192 38.912-28.672 73.728-61.44 110.592l16.384 16.384-14.336 14.336-65.536-65.536c-6.144 12.288-14.336 26.624-24.576 38.912l-16.384-10.24c28.672-40.96 43.008-79.872 47.104-116.736l20.48-2.048c0 10.24-2.048 20.48-4.096 32.768 28.672-16.384 57.344-26.624 86.016-32.768 4.096-26.624 2.048-51.2-6.144-79.872l20.48-4.096c8.192 26.624 10.24 55.296 6.144 79.872 26.624-6.144 53.248-4.096 79.872 4.096z m-155.648-149.504l-14.336 14.336 57.344 57.344-69.632 69.632-28.672-30.72-40.96 40.96 34.816 34.816-14.336 14.336-34.816-34.816-38.912 38.912-14.336-14.336L143.36 445.44l-36.864-36.864 14.336-14.336 36.864 36.864 40.96-40.96L169.984 363.52l83.968-83.968 14.336 14.336z m51.2 167.936c-28.672 6.144-57.344 18.432-88.064 36.864-2.048 4.096-4.096 10.24-6.144 14.336l40.96 40.96c24.576-30.72 43.008-61.44 53.248-92.16zM282.624 363.52l-43.008-43.008L196.608 363.52l43.008 43.008 43.008-43.008z m225.28 409.6l-12.288 12.288-30.72-30.72c-4.096 8.192-8.192 18.432-12.288 26.624l18.432 18.432-10.24 14.336-47.104-47.104c-8.192 4.096-14.336 8.192-20.48 10.24l-12.288-16.384c6.144-2.048 12.288-4.096 18.432-8.192l-43.008-43.008 12.288-12.288 18.432 18.432c8.192-4.096 16.384-8.192 26.624-14.336l-32.768-32.768 12.288-12.288L507.904 773.12zM471.04 490.496l-161.792 161.792 28.672 28.672c12.288-22.528 24.576-47.104 36.864-75.776 28.672-4.096 51.2-12.288 65.536-26.624 4.096-4.096 6.144-8.192 6.144-12.288 0-4.096-4.096-8.192-8.192-14.336-2.048-2.048-6.144-4.096-8.192-6.144l18.432-10.24c12.288 12.288 18.432 24.576 20.48 34.816 0 8.192-4.096 16.384-12.288 24.576-14.336 14.336-36.864 22.528-67.584 28.672-12.288 26.624-24.576 53.248-36.864 77.824l-12.288 12.288-57.344-63.488 174.08-174.08 14.336 14.336z m-18.432 251.904l-26.624-26.624c-8.192 6.144-18.432 10.24-26.624 14.336l38.912 38.912c6.144-8.192 10.24-18.432 14.336-26.624z m129.024-141.312l-24.576 24.576 51.2 51.2-12.288 12.288-51.2-51.2-14.336 14.336 38.912 38.912-59.392 59.392-94.208-94.208 59.392-59.392 38.912 38.912 14.336-14.336-53.248-53.248 12.288-12.288 53.248 53.248 24.576-24.576 16.384 16.384z m-61.44 110.592l-65.536-65.536-14.336 14.336 65.536 65.536 14.336-14.336z m24.576-22.528l-65.536-65.536-12.288 12.288L532.48 701.44l12.288-12.288z"  horiz-adv-x="1024" />

    
    <glyph glyph-name="bedge-offline" unicode="&#58927;" d="M20.48 896h1003.52L0-111.61599999999999V875.52c0 12.288 8.192 20.48 20.48 20.48zM272.384 596.992l-14.336 14.336-77.824-77.824c-8.192 4.096-16.384 8.192-22.528 10.24l-12.288-16.384c6.144-2.048 14.336-4.096 20.48-6.144l-81.92-81.92 14.336-14.336 174.08 172.032z m-2.048-102.4l-4.096 16.384c-12.288-4.096-26.624-6.144-38.912-10.24 2.048 12.288 4.096 24.576 4.096 36.864l-16.384-4.096c0-12.288-2.048-26.624-6.144-38.912-16.384-6.144-34.816-12.288-51.2-20.48l2.048-16.384 43.008 18.432c-4.096-14.336-12.288-30.72-20.48-47.104l18.432-4.096c10.24 22.528 18.432 40.96 22.528 57.344 16.384 4.096 30.72 10.24 47.104 12.288z m6.144-200.704l-63.488 63.488 38.912 38.912c6.144-16.384 10.24-30.72 14.336-43.008 0-2.048-2.048-4.096-4.096-8.192l16.384-10.24c30.72 36.864 51.2 65.536 63.488 83.968 4.096-2.048 10.24-4.096 16.384-6.144l6.144 18.432c-20.48 6.144-40.96 12.288-61.44 16.384l36.864 36.864 43.008-43.008c4.096-4.096 4.096-8.192-2.048-14.336l-16.384-16.384 16.384-10.24 16.384 16.384c12.288 12.288 12.288 22.528 0 32.768l-59.392 59.392-81.92-81.92c-2.048 6.144-6.144 12.288-8.192 18.432l65.536 65.536-55.296 55.296-12.288-14.336 43.008-43.008-100.352-100.352-43.008 43.008-14.336-14.336 55.296-55.296 49.152 49.152c4.096-6.144 6.144-12.288 10.24-18.432l-57.344-57.344 75.776-75.776 12.288 14.336z m4.096 71.68c-4.096 12.288-8.192 28.672-14.336 45.056l32.768 32.768-4.096-10.24c10.24-2.048 20.48-4.096 30.72-8.192-14.336-20.48-28.672-40.96-45.056-59.392z m129.024 159.744c16.384 22.528 32.768 47.104 47.104 75.776l-12.288 12.288c-10.24-18.432-20.48-36.864-32.768-55.296-2.048 26.624-10.24 65.536-26.624 116.736l-18.432-8.192c4.096-12.288 8.192-24.576 10.24-34.816l-24.576-30.72c-4.096 26.624-14.336 57.344-30.72 94.208l-18.432-8.192c16.384-32.768 26.624-61.44 34.816-92.16v-10.24l16.384-10.24c10.24 12.288 20.48 24.576 28.672 38.912 8.192-28.672 12.288-51.2 12.288-65.536 0-4.096-2.048-6.144-2.048-10.24l16.384-12.288zM454.656 773.12l4.096 18.432C444.416 793.6 430.08 793.6 409.6 793.6l-4.096-18.432c18.432 0 34.816 0 49.152-2.048z m153.6-143.36c10.24 10.24 6.144 32.768-14.336 63.488l-20.48-4.096c18.432-24.576 24.576-40.96 18.432-45.056-6.144-6.144-16.384-6.144-32.768-4.096-2.048 0-4.096 2.048-6.144 2.048 2.048 22.528 0 47.104-4.096 73.728l-20.48-4.096c4.096-20.48 6.144-43.008 4.096-63.488-10.24 4.096-22.528 12.288-34.816 20.48-4.096 2.048-8.192 6.144-12.288 8.192L532.48 740.352l-16.384 12.288-45.056-61.44c-10.24 8.192-18.432 16.384-28.672 24.576L487.424 773.12l-14.336 10.24L430.08 728.064l-43.008 43.008-14.336-14.336L417.792 711.6800000000001l-26.624-34.816 14.336-10.24L430.08 697.344c10.24-10.24 20.48-18.432 28.672-24.576L428.032 629.76l16.384-12.288 30.72 43.008 18.432-12.288c12.288-8.192 26.624-14.336 38.912-20.48-4.096-26.624-12.288-51.2-24.576-75.776l20.48-2.048c12.288 22.528 20.48 47.104 24.576 73.728 4.096-2.048 8.192-2.048 12.288-2.048 18.432-4.096 32.768-2.048 43.008 8.192z m-161.792-151.552c20.48 30.72 36.864 59.392 49.152 86.016l-14.336 14.336c-12.288-26.624-28.672-57.344-51.2-88.064l16.384-12.288z"  horiz-adv-x="1024" />

    
    <glyph glyph-name="bedge-open" unicode="&#58928;" d="M20.48 896h1003.52L0-111.61599999999999V875.52c0 12.288 8.192 20.48 20.48 20.48zM258.048 285.696c8.192 26.624 8.192 53.248 0 77.824-8.192 20.48-20.48 40.96-38.912 63.488l59.392 59.392 88.064-88.064 14.336 14.336-88.064 88.064 45.056 45.056-14.336 14.336-45.056-45.056-53.248 51.2 34.816 34.816-14.336 12.288-157.696-157.696 14.336-14.336 36.864 36.864L184.32 433.152l6.144-6.144L143.36 377.856l14.336-14.336 47.104 47.104c14.336-18.432 24.576-34.816 32.768-49.152 8.192-22.528 8.192-45.056 2.048-71.68l18.432-4.096z m6.144 212.992l-57.344-57.344c-2.048 2.048-4.096 4.096-8.192 6.144l-45.056 45.056 57.344 57.344 53.248-51.2z m88.064 169.984l6.144 20.48c-18.432 4.096-36.864 8.192-55.296 8.192l-8.192-18.432c20.48-2.048 38.912-4.096 57.344-10.24zM600.064 629.76c12.288 12.288 12.288 26.624 0 38.912l-151.552 151.552-92.16-92.16 12.288-12.288L446.464 793.6l133.12-133.12c8.192-8.192 8.192-14.336 4.096-18.432l-14.336-12.288 16.384-10.24 14.336 10.24zM471.04 498.688l-149.504 149.504-14.336-14.336 149.504-149.504 14.336 14.336z m73.728 75.776L491.52 627.712l26.624 26.624 12.288-12.288 14.336 14.336L450.56 750.592l-92.16-92.16 94.208-94.208 14.336 14.336-12.288 10.24 24.576 24.576 51.2-51.2 14.336 12.288z m-112.64 86.016l-24.576-24.576-22.528 22.528 24.576 24.576 22.528-22.528z m38.912 40.96l-26.624-26.624-22.528 22.528 26.624 26.624L471.04 701.44z m-6.144-75.776l-24.576-24.576-22.528 22.528 24.576 24.576 22.528-22.528z m40.96 40.96l-26.624-26.624-22.528 22.528 26.624 26.624 22.528-22.528z"  horiz-adv-x="1024" />

    
    <glyph glyph-name="bedge-normal" unicode="&#58929;" d="M20.48 896h1003.52L0-111.61599999999999V875.52c0 12.288 8.192 20.48 20.48 20.48zM417.792 461.824l-14.336 14.336-75.776-77.824-63.488 63.488 59.392 59.392-14.336 14.336-59.392-59.392-57.344 57.344 69.632 69.632-14.336 14.336-159.744-159.744 14.336-14.336 75.776 75.776 135.168-135.168-43.008-43.008-96.256 96.256-14.336-14.336 96.256-96.256-32.768-32.768 14.336-14.336 180.224 182.272z m-59.392 145.408l-26.624 26.624L468.992 773.12l26.624-26.624 16.384 16.384-40.96 40.96-34.816-34.816c-2.048 10.24-4.096 24.576-8.192 36.864l-18.432-10.24c6.144-14.336 8.192-28.672 12.288-43.008l-26.624-26.624-30.72 30.72-16.384-16.384 30.72-30.72-28.672-28.672c-14.336 6.144-28.672 10.24-40.96 12.288l-8.192-18.432c12.288-2.048 24.576-4.096 34.816-8.192l-32.768-32.768 40.96-40.96 14.336 14.336z m188.416-34.816l-51.2 51.2 49.152 49.152 20.48-20.48c6.144-6.144 4.096-10.24 0-16.384l-16.384-14.336 18.432-10.24 16.384 16.384c12.288 12.288 12.288 24.576 0 36.864l-36.864 36.864-63.488-63.488-16.384 16.384L512 697.344l-43.008 43.008-104.448-104.448 43.008-43.008 45.056 45.056 16.384-16.384-63.488-63.488 55.296-55.296 14.336 14.336-43.008 43.008 49.152 49.152 51.2-51.2 14.336 14.336z m-61.44 122.88L409.6 619.52l-20.48 20.48 75.776 75.776 20.48-20.48z"  horiz-adv-x="1024" />

    
    <glyph glyph-name="bedge-close" unicode="&#58930;" d="M20.48 896h1003.52L0-111.61599999999999V875.52c0 12.288 8.192 20.48 20.48 20.48zM149.504 377.856c16.384 55.296 22.528 108.544 16.384 157.696 53.248-4.096 104.448 0 155.648 16.384l-6.144 22.528c-51.2-16.384-102.4-24.576-157.696-20.48l-10.24-10.24c4.096-51.2-2.048-104.448-20.48-159.744l22.528-6.144z m133.12 147.456l-14.336 14.336L163.84 433.152l14.336-14.336 104.448 106.496z m4.096-208.896l-12.288 12.288 100.352 100.352 12.288-12.288 14.336 14.336-79.872 79.872-129.024-129.024 79.872-79.872 14.336 14.336z m73.728 124.928L260.096 343.03999999999996l-40.96 40.96 100.352 100.352 40.96-43.008z m-8.192 231.424l6.144 20.48c-18.432 4.096-36.864 8.192-55.296 8.192l-8.192-18.432c18.432-2.048 36.864-6.144 57.344-10.24z m247.808-38.912c12.288 12.288 12.288 26.624 0 38.912l-151.552 151.552L354.304 732.16l14.336-14.336 77.824 77.824 133.12-133.12c8.192-8.192 8.192-14.336 4.096-18.432l-14.336-14.336 16.384-10.24 14.336 14.336zM471.04 500.736L321.536 650.24l-14.336-14.336 149.504-149.504 14.336 14.336z m71.68 77.824L491.52 629.76l26.624 26.624 12.288-12.288 14.336 14.336L448.512 752.64l-92.16-92.16 94.208-94.208 14.336 14.336-12.288 12.288 24.576 24.576 51.2-51.2 14.336 12.288zM430.08 664.576l-24.576-24.576-22.528 22.528 24.576 24.576 22.528-22.528z m38.912 38.912l-26.624-26.624-22.528 22.528 26.624 26.624 22.528-22.528z m-4.096-73.728l-24.576-24.576-22.528 22.528 24.576 24.576 22.528-22.528z m38.912 38.912l-26.624-26.624-22.528 22.528 26.624 26.624 22.528-22.528z"  horiz-adv-x="1024" />

    
    <glyph glyph-name="bedge-stop" unicode="&#58931;" d="M20.48 896h1003.52L0-111.61599999999999V875.52c0 12.288 8.192 20.48 20.48 20.48zM280.576 306.17600000000004l-135.168 135.168c-6.144 20.48-14.336 38.912-24.576 59.392l-20.48-8.192c22.528-38.912 34.816-79.872 40.96-122.88l20.48-10.24c0 14.336-2.048 28.672-6.144 43.008l110.592-110.592 14.336 14.336z m-10.24 294.912l-12.288 12.288-57.344-57.344c-8.192 4.096-16.384 8.192-22.528 12.288l-14.336-18.432c6.144-2.048 14.336-6.144 20.48-8.192l-53.248-53.248 12.288-12.288 126.976 124.928z m34.816-63.488L266.24 574.4639999999999l-96.256-96.256 36.864-36.864 98.304 96.256z m-26.624-4.096L210.944 465.92l-16.384 16.384 67.584 67.584 16.384-16.384z m71.68-155.648c12.288 12.288 12.288 22.528 2.048 34.816L319.488 445.44l43.008 43.008-8.192 8.192 10.24 10.24-34.816 34.816-124.928-129.024 34.816-34.816 14.336 14.336 8.192-8.192 45.056 45.056 28.672-28.672c4.096-4.096 4.096-10.24-2.048-14.336-6.144-6.144-14.336-12.288-22.528-20.48l16.384-10.24 22.528 22.528z m-2.048 118.784l-100.352-100.352-18.432 18.432 100.352 100.352 18.432-18.432z m274.432 165.888l-14.336 14.336-73.728-73.728-79.872 79.872 61.44 61.44-14.336 14.336-61.44-61.44-65.536 65.536-14.336-14.336 159.744-159.744-43.008-43.008-124.928 124.928-14.336-14.336 124.928-124.928-34.816-34.816 14.336-14.336 180.224 180.224z"  horiz-adv-x="1024" />

    
    <glyph glyph-name="bedge-online" unicode="&#58932;" d="M20.48 896h1003.52L0-111.61599999999999V875.52c0 12.288 8.192 20.48 20.48 20.48zM290.816 312.32000000000005l-98.304 98.304c-2.048 24.576-8.192 49.152-16.384 71.68l108.544 108.544-14.336 14.336-102.4-102.4c-4.096 12.288-10.24 24.576-16.384 36.864l-14.336-12.288c6.144-12.288 12.288-26.624 18.432-38.912l-59.392-59.392 14.336-14.336L161.792 465.92c12.288-40.96 16.384-83.968 10.24-129.024l20.48-2.048c2.048 16.384 2.048 30.72 2.048 45.056l81.92-81.92 14.336 14.336z m131.072 145.408l-14.336 14.336-57.344-57.344-55.296 55.296 49.152 49.152-14.336 14.336-49.152-49.152-36.864 36.864-14.336-14.336 36.864-36.864-47.104-47.104 14.336-14.336 47.104 47.104 55.296-55.296-55.296-55.296 14.336-14.336 126.976 126.976z m-14.336 71.68c16.384 22.528 32.768 47.104 47.104 75.776l-12.288 12.288c-10.24-18.432-20.48-36.864-32.768-55.296-2.048 26.624-10.24 65.536-26.624 116.736l-18.432-8.192c4.096-12.288 8.192-24.576 10.24-34.816l-24.576-30.72c-4.096 26.624-14.336 57.344-30.72 94.208l-18.432-8.192c16.384-32.768 26.624-61.44 34.816-92.16v-10.24l16.384-10.24c10.24 12.288 20.48 24.576 28.672 38.912 8.192-28.672 12.288-51.2 12.288-65.536 0-4.096-2.048-6.144-2.048-10.24l16.384-12.288z m45.056 247.808l4.096 18.432c-12.288 2.048-28.672 2.048-49.152 0l-4.096-18.432c18.432 2.048 34.816 2.048 49.152 0z m153.6-145.408c10.24 10.24 6.144 32.768-14.336 63.488l-20.48-4.096c18.432-24.576 24.576-40.96 18.432-45.056-6.144-6.144-16.384-6.144-32.768-4.096-2.048 0-4.096 2.048-6.144 2.048 2.048 22.528 0 47.104-4.096 73.728l-18.432-4.096c4.096-20.48 6.144-43.008 4.096-63.488-10.24 4.096-22.528 12.288-34.816 20.48-4.096 2.048-8.192 6.144-12.288 8.192l45.056 63.488-16.384 12.288-45.056-61.44c-10.24 8.192-18.432 16.384-28.672 24.576l45.056 59.392-14.336 10.24-43.008-57.344L385.024 773.12l-14.336-14.336 45.056-45.056-26.624-34.816 14.336-10.24 24.576 32.768c10.24-10.24 20.48-18.432 28.672-24.576l-30.72-43.008 16.384-12.288 30.72 43.008 18.432-12.288c12.288-8.192 26.624-14.336 38.912-20.48-4.096-26.624-12.288-51.2-24.576-75.776l20.48-2.048c12.288 22.528 20.48 47.104 24.576 73.728 4.096-2.048 8.192-2.048 12.288-2.048 18.432-6.144 32.768-2.048 43.008 6.144z m-161.792-149.504c20.48 30.72 36.864 59.392 49.152 86.016l-14.336 14.336c-12.288-26.624-28.672-57.344-51.2-88.064l16.384-12.288z"  horiz-adv-x="1024" />

    
    <glyph glyph-name="bedge-warning" unicode="&#58933;" d="M20.48 896h1003.52L0-111.61599999999999V875.52c0 12.288 8.192 20.48 20.48 20.48zM272.384 297.98400000000004c12.288 12.288 12.288 24.576 0 34.816l-59.392 59.392c4.096 10.24 8.192 22.528 12.288 34.816l-14.336 14.336c-4.096-12.288-8.192-22.528-12.288-34.816l-40.96 40.96 22.528 22.528-14.336 14.336L143.36 461.824l-36.864 36.864-14.336-14.336L131.072 445.44 102.4 416.768l14.336-14.336 28.672 28.672L192.512 384c-6.144-14.336-14.336-28.672-22.528-40.96l18.432-10.24c6.144 12.288 12.288 26.624 18.432 38.912l49.152-49.152c6.144-6.144 6.144-12.288 0-16.384s-12.288-10.24-18.432-16.384l16.384-10.24 18.432 18.432z m79.872 75.776c6.144 20.48 10.24 40.96 8.192 61.44 18.432 0 38.912 4.096 59.392 8.192l-2.048 20.48c-22.528-6.144-43.008-10.24-61.44-10.24-4.096 24.576-14.336 51.2-32.768 75.776l-12.288 12.288-75.776-75.776-57.344 57.344 61.44 61.44c12.288-12.288 18.432-22.528 22.528-26.624v-10.24c-2.048-2.048-6.144-6.144-10.24-12.288l-12.288-12.288 16.384-8.192 14.336 14.336c12.288 12.288 16.384 24.576 12.288 34.816-6.144 10.24-18.432 24.576-40.96 47.104l-88.064-88.064 174.08-174.08 14.336 14.336-90.112 90.112 12.288 12.288c22.528-16.384 49.152-24.576 77.824-26.624 0-18.432-2.048-38.912-8.192-57.344l18.432-8.192z m-14.336 81.92c-24.576 2.048-45.056 10.24-63.488 22.528l38.912 38.912c12.288-20.48 20.48-40.96 24.576-61.44z m186.368 290.816l-4.096 18.432c-16.384-8.192-32.768-14.336-47.104-18.432 0 16.384-6.144 34.816-16.384 51.2l12.288 12.288-12.288 12.288L407.552 773.12c-2.048 4.096-4.096 10.24-8.192 14.336l-16.384-10.24c14.336-22.528 20.48-45.056 20.48-69.632l18.432-2.048c0 8.192 0 16.384-2.048 26.624 10.24-4.096 20.48-6.144 32.768-4.096-2.048-16.384-8.192-30.72-18.432-47.104l16.384-6.144c10.24 16.384 16.384 34.816 20.48 51.2 16.384 4.096 34.816 10.24 53.248 20.48z m20.48-14.336l-10.24 10.24-79.872-79.872c-4.096 4.096-10.24 8.192-16.384 8.192l-8.192-8.192v6.144c-2.048 8.192-14.336 24.576-36.864 47.104L327.68 650.24c0 2.048-2.048 4.096-4.096 6.144l10.24 10.24-6.144 10.24 20.48 22.528 8.192-8.192 12.288 12.288-8.192 8.192 24.576 24.576-10.24 10.24-24.576-24.576-8.192 8.192-12.288-12.288 8.192-8.192-22.528-22.528-8.192 10.24-12.288-12.288 8.192-8.192-22.528-26.624 10.24-10.24 24.576 24.576 6.144-6.144-12.288-8.192c10.24-16.384 12.288-32.768 10.24-49.152l18.432-2.048c2.048 12.288 0 26.624-4.096 38.912L389.12 693.248c12.288-14.336 20.48-22.528 22.528-26.624 2.048-4.096 2.048-10.24-2.048-14.336l-4.096-4.096-22.528 22.528-43.008-43.008 26.624-26.624 40.96 40.96 6.144-4.096 8.192 8.192c2.048 4.096 6.144 6.144 6.144 10.24 4.096 0 8.192-2.048 14.336-4.096l-81.92-81.92 10.24-10.24L544.768 732.16z m-90.112 10.24c-14.336-2.048-28.672 0-38.912 6.144 0 2.048-2.048 4.096-2.048 6.144l28.672 28.672c8.192-12.288 12.288-26.624 12.288-40.96zM389.12 637.952l-20.48-20.48-12.288 12.288 20.48 20.48 12.288-12.288z m151.552 53.248l-8.192 10.24-126.976-126.976 8.192-8.192 126.976 124.928z m18.432-16.384l-8.192 8.192-126.976-126.976 8.192-8.192 126.976 126.976zM487.424 506.88l-6.144 6.144 110.592 110.592 6.144-6.144 14.336 14.336-36.864 38.912-139.264-139.264 36.864-36.864 14.336 12.288z m96.256 126.976L471.04 523.264l-12.288 12.288 110.592 110.592 14.336-12.288z"  horiz-adv-x="1024" />

    
    <glyph glyph-name="bedge-running" unicode="&#58934;" d="M20.48 896h1003.52L0-111.61599999999999V875.52c0 12.288 8.192 20.48 20.48 20.48zM147.456 445.44v20.48c-20.48 0-40.96 0-65.536-4.096v-20.48c24.576 4.096 47.104 6.144 65.536 4.096z m106.496 145.408l-12.288 12.288-92.16-92.16 12.288-12.288 92.16 92.16z m124.928-126.976l10.24 16.384c-32.768 14.336-63.488 26.624-92.16 32.768l-8.192-16.384c16.384-4.096 32.768-10.24 49.152-16.384-12.288-20.48-30.72-47.104-55.296-75.776-2.048 20.48-12.288 51.2-30.72 90.112l63.488 63.488-14.336 14.336-120.832-120.832 14.336-14.336 43.008 43.008c22.528-55.296 32.768-88.064 26.624-98.304l16.384-8.192c32.768 38.912 57.344 73.728 75.776 100.352 6.144-2.048 14.336-6.144 22.528-10.24z m-118.784-184.32c-6.144 28.672-8.192 47.104-4.096 51.2 2.048 2.048 6.144 4.096 12.288 2.048 14.336 0 24.576 2.048 34.816 6.144 10.24 6.144 22.528 14.336 34.816 28.672 12.288 12.288 24.576 24.576 36.864 34.816l47.104 47.104-10.24 18.432c-4.096-6.144-12.288-14.336-22.528-24.576-10.24-10.24-20.48-20.48-28.672-30.72l-38.912-38.912c-12.288-12.288-22.528-18.432-30.72-22.528-8.192-4.096-18.432-4.096-28.672-4.096h-8.192L178.176 424.96l-43.008-43.008 12.288-12.288 28.672 28.672 61.44-61.44c-4.096-12.288-4.096-32.768 2.048-59.392l20.48 2.048zM335.872 588.8c8.192 43.008 6.144 79.872-4.096 112.64l-18.432-8.192c8.192-28.672 10.24-59.392 4.096-96.256l18.432-8.192z m131.072 208.896l-14.336 14.336-96.256-96.256 12.288-14.336 98.304 96.256z m26.624-284.672l-98.304 98.304c0 18.432-4.096 36.864-10.24 53.248l-18.432-8.192c10.24-32.768 12.288-71.68 4.096-112.64l18.432-10.24c4.096 16.384 4.096 32.768 6.144 47.104l81.92-81.92 16.384 14.336z m83.968 86.016c12.288 12.288 14.336 24.576 2.048 36.864l-86.016 86.016 32.768 32.768-14.336 16.384-110.592-110.592 14.336-14.336 63.488 63.488 83.968-83.968c6.144-6.144 4.096-10.24-2.048-18.432-8.192-8.192-18.432-18.432-28.672-26.624l16.384-10.24 28.672 28.672z"  horiz-adv-x="1024" />

    
    <glyph glyph-name="save" unicode="&#58891;" d="M775.314286 896c21.942857 0 36.571429-7.314286 51.2-21.942857l175.542857-175.542857c14.628571-14.628571 21.942857-29.257143 21.942857-51.2V18.285713999999984c0-43.885714-29.257143-73.142857-73.142857-73.142857H73.142857c-43.885714 0-73.142857 29.257143-73.142857 73.142857V822.857143c0 43.885714 29.257143 73.142857 73.142857 73.142857h702.171429zM219.428571 822.857143H73.142857v-804.571429h877.714286V647.314286L775.314286 822.857143H658.285714v-146.285714c0-43.885714-29.257143-73.142857-73.142857-73.142858H292.571429c-43.885714 0-73.142857 29.257143-73.142858 73.142858V822.857143z m402.285715-438.857143c21.942857 0 36.571429-14.628571 36.571428-36.571429s-14.628571-36.571429-36.571428-36.571428h-365.714286c-21.942857 0-36.571429 14.628571-36.571429 36.571428s14.628571 36.571429 36.571429 36.571429h365.714286zM585.142857 822.857143H292.571429v-146.285714h292.571428V822.857143z"  horiz-adv-x="1024" />

    
    <glyph glyph-name="position" unicode="&#58892;" d="M512 896c212.114286 0 365.714286-131.657143 365.714286-343.771429 0-102.4-58.514286-226.742857-175.542857-387.657142H877.714286c80.457143 0 146.285714-65.828571 146.285714-146.285715s-65.828571-146.285714-146.285714-146.285714H146.285714c-80.457143 0-146.285714 65.828571-146.285714 146.285714s65.828571 146.285714 146.285714 146.285715h175.542857C204.8 318.171429 146.285714 449.828571 146.285714 552.228571 146.285714 764.342857 299.885714 896 512 896zM380.342857 91.42857100000003H146.285714c-43.885714 0-73.142857-29.257143-73.142857-73.142857s29.257143-73.142857 73.142857-73.142857h731.428572c43.885714 0 73.142857 29.257143 73.142857 73.142857s-29.257143 73.142857-73.142857 73.142857H643.657143l-14.628572-21.942857c-21.942857-21.942857-36.571429-43.885714-58.514285-65.828571 0 0 0-7.314286-7.314286-7.314286-29.257143-29.257143-73.142857-21.942857-102.4 7.314286-21.942857 21.942857-43.885714 43.885714-58.514286 65.828571l-21.942857 21.942857zM512 822.857143C336.457143 822.857143 219.428571 720.457143 219.428571 552.228571c0-109.714286 95.085714-277.942857 292.571429-497.371428 197.485714 219.428571 292.571429 387.657143 292.571429 497.371428C804.571429 720.457143 687.542857 822.857143 512 822.857143z m0-219.428572c43.885714 0 73.142857-29.257143 73.142857-73.142857s-29.257143-73.142857-73.142857-73.142857-73.142857 29.257143-73.142857 73.142857 29.257143 73.142857 73.142857 73.142857z"  horiz-adv-x="1024" />

    
    <glyph glyph-name="export" unicode="&#58893;" d="M585.142857 896c43.885714 0 73.142857-29.257143 73.142857-73.142857v-109.714286c0-21.942857-14.628571-36.571429-36.571428-36.571428S585.142857 691.2 585.142857 713.142857V822.857143H109.714286c-21.942857 0-36.571429-14.628571-36.571429-36.571429v-804.571428c0-21.942857 14.628571-36.571429 36.571429-36.571429H585.142857v109.714286c0 21.942857 14.628571 36.571429 36.571429 36.571428s36.571429-14.628571 36.571428-36.571428V-54.85714299999995c0-43.885714-29.257143-73.142857-73.142857-73.142857H109.714286C51.2-128 0-76.79999999999995 0-18.285713999999984v804.571428C0 844.8 51.2 896 109.714286 896H585.142857z m431.542857-453.485714s0-7.314286 0 0l7.314286-7.314286v-14.628571l-219.428571-219.428572c-14.628571-14.628571-36.571429-14.628571-51.2 0-14.628571 14.628571-14.628571 36.571429 0 51.2l146.285714 131.657143H321.828571c-14.628571 7.314286-29.257143 21.942857-29.257142 36.571429v7.314285c0 14.628571 21.942857 29.257143 36.571428 29.257143h570.514286l-153.6 153.6-7.314286 7.314286c-7.314286 14.628571-7.314286 36.571429 0 43.885714 14.628571 14.628571 36.571429 14.628571 51.2 0l226.742857-219.428571z"  horiz-adv-x="1024" />

    
    <glyph glyph-name="fadeback" unicode="&#58894;" d="M950.857143 822.857143c43.885714 0 73.142857-29.257143 73.142857-73.142857v-585.142857c0-43.885714-29.257143-73.142857-73.142857-73.142858H533.942857c-14.628571 0-29.257143-7.314286-43.885714-14.628571l-234.057143-182.857143c-7.314286 0-7.314286-7.314286-14.628571-7.314286-14.628571 0-21.942857 7.314286-21.942858 21.942858V91.42857100000003H73.142857c-43.885714 0-73.142857 29.257143-73.142857 73.142858V749.714286c0 43.885714 29.257143 73.142857 73.142857 73.142857h877.714286z m0-73.142857H73.142857v-585.142857h182.857143c21.942857 0 36.571429-14.628571 36.571429-36.571429V18.285713999999984l153.6 117.028572c29.257143 21.942857 58.514286 29.257143 87.771428 29.257143H950.857143V749.714286zM292.571429 530.285714c43.885714 0 73.142857-29.257143 73.142857-73.142857s-29.257143-73.142857-73.142857-73.142857-73.142857 29.257143-73.142858 73.142857 29.257143 73.142857 73.142858 73.142857z m219.428571 0c43.885714 0 73.142857-29.257143 73.142857-73.142857s-29.257143-73.142857-73.142857-73.142857-73.142857 29.257143-73.142857 73.142857 29.257143 73.142857 73.142857 73.142857z m219.428571 0c43.885714 0 73.142857-29.257143 73.142858-73.142857s-29.257143-73.142857-73.142858-73.142857-73.142857 29.257143-73.142857 73.142857 29.257143 73.142857 73.142857 73.142857z"  horiz-adv-x="1024" />

    
    <glyph glyph-name="import" unicode="&#58895;" d="M731.428571 896c43.885714 0 73.142857-29.257143 73.142858-73.142857v-109.714286c0-21.942857-14.628571-36.571429-36.571429-36.571428s-36.571429 14.628571-36.571429 36.571428V822.857143H109.714286c-21.942857 0-36.571429-14.628571-36.571429-36.571429v-804.571428c0-21.942857 14.628571-36.571429 36.571429-36.571429H731.428571v109.714286c0 21.942857 14.628571 36.571429 36.571429 36.571428s36.571429-14.628571 36.571429-36.571428V-54.85714299999995c0-43.885714-29.257143-73.142857-73.142858-73.142857H109.714286C51.2-128 0-76.79999999999995 0-18.285713999999984v804.571428C0 844.8 51.2 896 109.714286 896H731.428571zM570.514286 661.942857c14.628571-7.314286 14.628571-29.257143 7.314285-43.885714l-7.314285-7.314286L416.914286 457.142857h570.514285c14.628571 0 29.257143-14.628571 36.571429-29.257143v-7.314285c0-14.628571-14.628571-29.257143-29.257143-36.571429H416.914286l153.6-153.6c14.628571-14.628571 14.628571-43.885714 0-51.2-7.314286-14.628571-36.571429-14.628571-51.2 0l-219.428572 219.428571v7.314286l219.428572 219.428572c14.628571 51.2 43.885714 51.2 51.2 36.571428z"  horiz-adv-x="1024" />

    
    <glyph glyph-name="delete" unicode="&#58896;" d="M841.142857 610.742857c21.942857 0 36.571429-14.628571 36.571429-36.571428v-585.142858c0-58.514286-51.2-109.714286-109.714286-109.714285h-512c-58.514286 0-109.714286 51.2-109.714286 109.714285v585.142858c0 21.942857 14.628571 36.571429 36.571429 36.571428s36.571429-21.942857 36.571428-36.571428v-585.142858c0-21.942857 14.628571-36.571429 36.571429-36.571428h512c21.942857 0 36.571429 14.628571 36.571429 36.571428v585.142858c0 14.628571 14.628571 36.571429 36.571428 36.571428z m-438.857143 0c21.942857 0 36.571429-21.942857 36.571429-36.571428v-512c0-21.942857-14.628571-36.571429-36.571429-36.571429s-36.571429 14.628571-36.571428 36.571429v512c0 14.628571 14.628571 36.571429 36.571428 36.571428z m219.428572 0c21.942857 0 36.571429-21.942857 36.571428-36.571428v-512c0-21.942857-14.628571-36.571429-36.571428-36.571429s-36.571429 14.628571-36.571429 36.571429v512c0 14.628571 14.628571 36.571429 36.571429 36.571428z m0 285.257143c58.514286 0 109.714286-51.2 109.714285-109.714286V749.714286h256c21.942857 0 36.571429-14.628571 36.571429-36.571429s-14.628571-36.571429-36.571429-36.571428H36.571429C14.628571 676.571429 0 691.2 0 713.142857S14.628571 749.714286 36.571429 749.714286H292.571429v36.571428C292.571429 844.8 336.457143 888.685714 394.971429 896h226.742857z m0-73.142857h-219.428572c-21.942857 0-36.571429-14.628571-36.571428-36.571429V749.714286h292.571428v36.571428c0 14.628571-14.628571 29.257143-36.571428 36.571429z"  horiz-adv-x="1024" />

    
    <glyph glyph-name="complete" unicode="&#58897;" d="M512 896c102.4 0 197.485714-29.257143 277.942857-80.457143 14.628571-7.314286 21.942857-36.571429 7.314286-51.2s-29.257143-21.942857-51.2-14.628571c-65.828571 51.2-146.285714 73.142857-234.057143 73.142857-241.371429 0-438.857143-197.485714-438.857143-438.857143s197.485714-438.857143 438.857143-438.857143 438.857143 197.485714 438.857143 438.857143c0 36.571429-7.314286 80.457143-14.628572 117.028571-7.314286 21.942857 7.314286 36.571429 21.942858 43.885715 21.942857 7.314286 36.571429-7.314286 43.885714-21.942857 14.628571-43.885714 21.942857-95.085714 21.942857-138.971429 0-285.257143-226.742857-512-512-512s-512 226.742857-512 512 226.742857 512 512 512z m446.171429-80.457143c14.628571 14.628571 36.571429 14.628571 51.2 7.314286 14.628571-14.628571 14.628571-36.571429 7.314285-51.2L570.514286 245.02857100000006c-14.628571-14.628571-36.571429-21.942857-51.2-7.314285L248.685714 479.085714c-14.628571 7.314286-14.628571 36.571429 0 51.2s36.571429 14.628571 51.2 0l241.371429-212.114285 416.914286 497.371428z"  horiz-adv-x="1024" />

    
    <glyph glyph-name="invisible" unicode="&#58899;" d="M811.885714 742.4c14.628571 14.628571 36.571429 14.628571 51.2 0 14.628571-14.628571 14.628571-36.571429 0-51.2l-658.285714-658.285714c-14.628571-14.628571-36.571429-14.628571-51.2 0s-14.628571 36.571429 0 51.2l658.285714 658.285714z m36.571429-153.6c43.885714-29.257143 87.771429-65.828571 124.342857-117.028571 43.885714-51.2 43.885714-124.342857 0-175.542858C863.085714 157.25714300000004 709.485714 91.42857100000003 512 91.42857100000003c-51.2 0-102.4 7.314286-146.285714 14.628572l65.828571 65.828571c21.942857-7.314286 51.2-7.314286 80.457143-7.314285 175.542857 0 307.2 58.514286 394.971429 175.542857 21.942857 29.257143 21.942857 65.828571 0 87.771428-36.571429 43.885714-73.142857 80.457143-117.028572 102.4l58.514286 58.514286zM512 676.571429c51.2 0 102.4-7.314286 146.285714-14.628572l-58.514285-65.828571C570.514286 603.4285709999999 541.257143 603.4285709999999 512 603.4285709999999c-175.542857 0-307.2-58.514286-394.971429-175.542857-21.942857-29.257143-21.942857-65.828571 0-87.771428 36.571429-43.885714 73.142857-80.457143 117.028572-102.4l-51.2-58.514286c-51.2 29.257143-87.771429 73.142857-124.342857 117.028571-43.885714 51.2-43.885714 124.342857 0 175.542858C160.914286 610.742857 314.514286 676.571429 512 676.571429z m146.285714-277.942858V384c0-80.457143-65.828571-146.285714-146.285714-146.285714h-14.628571L658.285714 398.628571zM512 530.285714h14.628571L365.714286 369.37142900000003V384c0 80.457143 65.828571 146.285714 146.285714 146.285714z"  horiz-adv-x="1024" />

    
    <glyph glyph-name="send" unicode="&#58900;" d="M987.428571 808.228571v-36.571428L753.371429-54.85714299999995c-14.628571-36.571429-51.2-58.514286-87.771429-51.2-14.628571 0-21.942857 7.314286-29.257143 21.942857L365.714286 179.20000000000005l-204.8-204.8c-14.628571-14.628571-36.571429-14.628571-51.2 0-14.628571 14.628571-14.628571 36.571429 0 51.2l204.8 204.8L29.257143 515.657143c-29.257143 29.257143-29.257143 73.142857 0 102.4 7.314286 7.314286 21.942857 14.628571 29.257143 21.942857L899.657143 866.742857c36.571429 7.314286 80.457143-14.628571 87.771428-58.514286z m-87.771428-95.085714L416.914286 230.39999999999998l263.314285-263.314286 219.428572 746.057143z m-51.2 58.514286L80.457143 566.857143 365.714286 281.6l482.742857 490.057143z"  horiz-adv-x="1024" />

    
    <glyph glyph-name="back" unicode="&#58901;" d="M212.114286 522.971429c7.314286-14.628571 7.314286-43.885714 0-58.514286-14.628571-7.314286-43.885714-7.314286-58.514286 0l-146.285714 146.285714v7.314286 7.314286s0 7.314286 7.314285 7.314285v-7.314285l146.285715 146.285714c7.314286 51.2 36.571429 51.2 51.2 43.885714 7.314286-14.628571 7.314286-43.885714 0-58.514286L124.342857 676.571429h570.514286c175.542857 0 321.828571-138.971429 329.142857-314.514286v-14.628572C1024 164.57142899999997 877.714286 18.285713999999984 694.857143 18.285713999999984h-512c-21.942857 0-36.571429 14.628571-36.571429 36.571429s14.628571 36.571429 36.571429 36.571428h512c138.971429 0 256 117.028571 256 256S833.828571 603.4285709999999 694.857143 603.4285709999999H124.342857l87.771429-80.457142z"  horiz-adv-x="1024" />

    
    <glyph glyph-name="upload" unicode="&#58902;" d="M504.685714 574.171429L760.685714 310.85714299999995c14.628571-14.628571 14.628571-29.257143 7.314286-43.885714l-7.314286-7.314286c-14.628571-14.628571-36.571429-14.628571-51.2 0L512 464.457143v-555.885714c0-21.942857-14.628571-36.571429-36.571429-36.571429s-36.571429 14.628571-36.571428 36.571429V464.457143L241.371429 266.97142899999994c-14.628571-14.628571-36.571429-14.628571-51.2 0-14.628571 14.628571-14.628571 36.571429 0 51.2l256 256c21.942857 14.628571 43.885714 14.628571 58.514285 0zM768 749.714286c21.942857 0 36.571429-14.628571 36.571429-36.571429s-14.628571-36.571429-36.571429-36.571428h-585.142857c-21.942857 0-36.571429 14.628571-36.571429 36.571428s14.628571 36.571429 36.571429 36.571429h585.142857z m146.285714 146.285714c21.942857 0 36.571429-14.628571 36.571429-36.571429s-14.628571-36.571429-36.571429-36.571428H36.571429C14.628571 822.857143 0 837.485714 0 859.428571S14.628571 896 36.571429 896h877.714285z"  horiz-adv-x="1024" />

    
    <glyph glyph-name="print" unicode="&#58903;" d="M877.714286 91.42857100000003v-146.285714c0-43.885714-29.257143-73.142857-73.142857-73.142857H219.428571c-43.885714 0-73.142857 29.257143-73.142857 73.142857v146.285714H73.142857c-43.885714 0-73.142857 29.257143-73.142857 73.142858V603.4285709999999c0 43.885714 29.257143 73.142857 73.142857 73.142858h73.142857V822.857143c0 43.885714 29.257143 73.142857 73.142857 73.142857h585.142858c43.885714 0 73.142857-29.257143 73.142857-73.142857v-146.285714h73.142857c43.885714 0 73.142857-29.257143 73.142857-73.142858v-438.857142c0-43.885714-29.257143-73.142857-73.142857-73.142858h-73.142857z m-73.142857 219.428572H219.428571v-365.714286h585.142858V310.85714299999995z m0 512H219.428571v-146.285714h585.142858V822.857143z m73.142857-658.285714h73.142857V603.4285709999999H73.142857v-438.857142h73.142857V310.85714299999995c0 43.885714 29.257143 73.142857 73.142857 73.142857h585.142858c43.885714 0 73.142857-29.257143 73.142857-73.142857v-146.285714z"  horiz-adv-x="1024" />

    
    <glyph glyph-name="attachment" unicode="&#58904;" d="M789.942857 347.42857100000003H299.885714c-43.885714 0-73.142857 29.257143-73.142857 73.142858s29.257143 73.142857 73.142857 73.142857H804.571429c80.457143 0 146.285714-65.828571 146.285714-146.285715s-65.828571-146.285714-146.285714-146.285714H292.571429c-124.342857 0-219.428571 95.085714-219.428572 219.428572s95.085714 219.428571 219.428572 219.428571h416.914285c21.942857 0 36.571429 14.628571 36.571429 36.571429s-14.628571 36.571429-36.571429 36.571428H292.571429c-160.914286 0-292.571429-131.657143-292.571429-292.571428s131.657143-292.571429 292.571429-292.571429h512c124.342857 0 219.428571 95.085714 219.428571 219.428571s-95.085714 219.428571-219.428571 219.428572H299.885714c-80.457143 0-146.285714-65.828571-146.285714-146.285714s65.828571-146.285714 146.285714-146.285715h490.057143c21.942857 0 36.571429 14.628571 36.571429 36.571429s-14.628571 36.571429-36.571429 36.571428z"  horiz-adv-x="1024" />

    
    <glyph glyph-name="edit" unicode="&#58905;" d="M987.428571 18.285713999999984c21.942857 0 36.571429-14.628571 36.571429-36.571428s-14.628571-36.571429-36.571429-36.571429H36.571429c-21.942857 0-36.571429 14.628571-36.571429 36.571429s14.628571 36.571429 36.571429 36.571428h950.857142zM826.514286 866.742857l102.4-102.4c29.257143-29.257143 29.257143-73.142857 0-102.4l-533.942857-533.942857c-14.628571-14.628571-29.257143-21.942857-43.885715-21.942857l-153.6-14.628572c-21.942857 0-36.571429 14.628571-36.571428 36.571429v7.314286l7.314285 153.6c0 14.628571 7.314286 36.571429 21.942858 51.2L724.114286 874.057143c29.257143 21.942857 73.142857 21.942857 102.4-7.314286z m-51.2-51.2L234.057143 274.285714V164.57142899999997l109.714286 7.314285L877.714286 705.828571l-102.4 109.714286z"  horiz-adv-x="1024" />

    
    <glyph glyph-name="unlock" unicode="&#58906;" d="M585.142857 896c124.342857 0 219.428571-95.085714 219.428572-219.428571v-146.285715h73.142857c43.885714 0 73.142857-29.257143 73.142857-73.142857v-512c0-43.885714-29.257143-73.142857-73.142857-73.142857H146.285714c-43.885714 0-73.142857 29.257143-73.142857 73.142857V457.142857c0 43.885714 29.257143 73.142857 73.142857 73.142857h585.142857V676.571429c0 80.457143-58.514286 138.971429-138.971428 146.285714H438.857143c-51.2 0-102.4-29.257143-124.342857-73.142857l-7.314286-7.314286s0-7.314286-7.314286-7.314286c-7.314286-21.942857-14.628571-29.257143-29.257143-29.257143s-36.571429 14.628571-36.571428 36.571429V749.714286C263.314286 837.485714 343.771429 896 438.857143 896h146.285714z m292.571429-438.857143H146.285714v-512h731.428572V457.142857zM512 237.71428600000002c43.885714 0 73.142857-29.257143 73.142857-73.142857s-29.257143-73.142857-73.142857-73.142858-73.142857 29.257143-73.142857 73.142858 29.257143 73.142857 73.142857 73.142857z"  horiz-adv-x="1024" />

    
    <glyph glyph-name="stopped" unicode="&#58907;" d="M512 896c285.257143 0 512-226.742857 512-512s-226.742857-512-512-512-512 226.742857-512 512 226.742857 512 512 512z m329.142857-226.742857L219.428571 47.542857000000026c80.457143-58.514286 182.857143-102.4 292.571429-102.4 241.371429 0 438.857143 197.485714 438.857143 438.857143 0 109.714286-43.885714 212.114286-109.714286 285.257143zM512 822.857143C270.628571 822.857143 73.142857 625.371429 73.142857 384c0-109.714286 36.571429-204.8 102.4-277.942857l614.4 614.4C716.8 786.285714 621.714286 822.857143 512 822.857143z"  horiz-adv-x="1024" />

    
    <glyph glyph-name="reset" unicode="&#58908;" d="M394.971429 522.971429c14.628571-14.628571 14.628571-36.571429 0-51.2-14.628571-14.628571-43.885714-14.628571-58.514286-7.314286l-146.285714 146.285714v7.314286 7.314286s0 7.314286 7.314285 7.314285v-7.314285l146.285715 146.285714c7.314286 51.2 36.571429 51.2 51.2 43.885714 14.628571-14.628571 14.628571-36.571429 0-51.2L307.2 676.571429h387.657143c175.542857 0 321.828571-138.971429 329.142857-314.514286v-14.628572C1024 164.57142899999997 877.714286 18.285713999999984 694.857143 18.285713999999984h-365.714286C146.285714 18.285713999999984 0 164.57142899999997 0 347.42857100000003c0 21.942857 14.628571 36.571429 36.571429 36.571429s36.571429-14.628571 36.571428-36.571429C73.142857 208.45714299999997 190.171429 91.42857100000003 329.142857 91.42857100000003h365.714286c138.971429 0 256 117.028571 256 256S833.828571 603.4285709999999 694.857143 603.4285709999999H307.2l87.771429-80.457142z"  horiz-adv-x="1024" />

    
    <glyph glyph-name="lock" unicode="&#58909;" d="M585.142857 896c124.342857 0 219.428571-95.085714 219.428572-219.428571v-146.285715h73.142857c43.885714 0 73.142857-29.257143 73.142857-73.142857v-512c0-43.885714-29.257143-73.142857-73.142857-73.142857H146.285714c-43.885714 0-73.142857 29.257143-73.142857 73.142857V457.142857c0 43.885714 29.257143 73.142857 73.142857 73.142857h73.142857V676.571429c0 124.342857 95.085714 219.428571 219.428572 219.428571h146.285714z m292.571429-438.857143H146.285714v-512h731.428572V457.142857zM512 237.71428600000002c43.885714 0 73.142857-29.257143 73.142857-73.142857s-29.257143-73.142857-73.142857-73.142858-73.142857 29.257143-73.142857 73.142858 29.257143 73.142857 73.142857 73.142857z m73.142857 585.142857H438.857143c-80.457143 0-138.971429-58.514286-146.285714-138.971429V530.285714h438.857142V676.571429c0 80.457143-58.514286 138.971429-138.971428 146.285714H585.142857z"  horiz-adv-x="1024" />

    
    <glyph glyph-name="add" unicode="&#58911;" d="M475.428571 896c21.942857 0 36.571429-14.628571 36.571429-36.571429V457.142857h402.285714c21.942857 0 36.571429-14.628571 36.571429-36.571428s-14.628571-36.571429-36.571429-36.571429H512v-402.285714c0-21.942857-14.628571-36.571429-36.571429-36.571429s-36.571429 14.628571-36.571428 36.571429V384H36.571429C14.628571 384 0 398.628571 0 420.571429S14.628571 457.142857 36.571429 457.142857H438.857143V859.428571c0 21.942857 14.628571 36.571429 36.571428 36.571429z"  horiz-adv-x="1024" />

    
    <glyph glyph-name="visiable" unicode="&#58912;" d="M512 676.571429c197.485714 0 351.085714-65.828571 453.485714-204.8 43.885714-51.2 43.885714-124.342857 0-175.542858C863.085714 157.25714300000004 709.485714 91.42857100000003 512 91.42857100000003S160.914286 157.25714300000004 58.514286 296.228571C14.628571 347.42857100000003 14.628571 420.571429 58.514286 471.771429 160.914286 610.742857 314.514286 676.571429 512 676.571429z m0-73.142858c-175.542857 0-307.2-58.514286-394.971429-175.542857-21.942857-29.257143-21.942857-65.828571 0-87.771428C204.8 223.08571400000005 336.457143 164.57142899999997 512 164.57142899999997s307.2 58.514286 394.971429 175.542857c21.942857 29.257143 21.942857 65.828571 0 87.771428C819.2 544.914286 687.542857 603.4285709999999 512 603.4285709999999z m0-73.142857c80.457143 0 146.285714-65.828571 146.285714-146.285714s-65.828571-146.285714-146.285714-146.285714-146.285714 65.828571-146.285714 146.285714 65.828571 146.285714 146.285714 146.285714z"  horiz-adv-x="1024" />

    
    <glyph glyph-name="configure" unicode="&#58913;" d="M329.142857 164.57142899999997c51.2 0 87.771429-29.257143 102.4-73.142858h555.885714c21.942857 0 36.571429-14.628571 36.571429-36.571428s-14.628571-36.571429-36.571429-36.571429H431.542857c-14.628571-43.885714-58.514286-73.142857-102.4-73.142857s-87.771429 29.257143-102.4 73.142857H36.571429c-21.942857 0-36.571429 14.628571-36.571429 36.571429s14.628571 36.571429 36.571429 36.571428h190.171428c14.628571 43.885714 51.2 73.142857 102.4 73.142858z m0-73.142858c-21.942857-7.314286-36.571429-21.942857-36.571428-36.571428V32.91428599999995c0-7.314286 7.314286-7.314286 7.314285-14.628572 0 0 7.314286 0 7.314286-7.314285H329.142857c14.628571 0 29.257143 14.628571 29.257143 36.571428 7.314286 29.257143-7.314286 43.885714-29.257143 43.885714z m438.857143 438.857143c51.2 0 87.771429-29.257143 102.4-73.142857h117.028571c21.942857 0 36.571429-14.628571 36.571429-36.571428s-14.628571-36.571429-36.571429-36.571429h-117.028571c-14.628571-43.885714-58.514286-73.142857-102.4-73.142857s-87.771429 29.257143-102.4 73.142857H36.571429C14.628571 384 0 398.628571 0 420.571429S14.628571 457.142857 36.571429 457.142857h629.028571c14.628571 43.885714 51.2 73.142857 102.4 73.142857z m0-73.142857c-21.942857 0-36.571429-14.628571-36.571429-36.571428 0-7.314286 0-14.628571 7.314286-21.942858v-7.314285l7.314286-7.314286h21.942857-7.314286 14.628572c14.628571 0 29.257143 14.628571 29.257143 36.571429s-14.628571 29.257143-36.571429 36.571428z m-512 438.857143c51.2 0 87.771429-29.257143 102.4-73.142857h629.028571c21.942857 0 36.571429-14.628571 36.571429-36.571429s-14.628571-36.571429-36.571429-36.571428H358.4c-14.628571-43.885714-51.2-73.142857-102.4-73.142857s-87.771429 29.257143-102.4 73.142857H36.571429C14.628571 749.714286 0 764.342857 0 786.285714S14.628571 822.857143 36.571429 822.857143h117.028571c14.628571 43.885714 51.2 73.142857 102.4 73.142857z m0-73.142857c-21.942857 0-36.571429-14.628571-36.571429-36.571429 0-7.314286 0-14.628571 7.314286-21.942857l7.314286-7.314286s7.314286 0 7.314286-7.314285h7.314285-7.314285 14.628571c21.942857 7.314286 36.571429 21.942857 36.571429 36.571428s-14.628571 29.257143-36.571429 36.571429z"  horiz-adv-x="1024" />

    
    <glyph glyph-name="hourglass" unicode="&#58914;" d="M914.285714 896c21.942857 0 36.571429-14.628571 36.571429-36.571429s-14.628571-36.571429-36.571429-36.571428H877.714286V647.314286c0-29.257143-7.314286-51.2-21.942857-80.457143l-95.085715-146.285714L855.771429 237.71428600000002c7.314286-14.628571 14.628571-36.571429 14.628571-58.514286V-54.85714299999995h36.571429c21.942857 0 36.571429-14.628571 36.571428-36.571428s-7.314286-36.571429-29.257143-36.571429h-804.571428c-21.942857 0-36.571429 14.628571-36.571429 36.571429s14.628571 36.571429 36.571429 36.571428H146.285714V171.885714c0 21.942857 7.314286 36.571429 14.628572 58.514286V237.71428600000002l102.4 175.542857-95.085715 146.285714c-14.628571 29.257143-21.942857 58.514286-21.942857 87.771429V822.857143h-36.571428C87.771429 822.857143 73.142857 837.485714 73.142857 859.428571s14.628571 36.571429 36.571429 36.571429h804.571428zM804.571429 18.285713999999984H219.428571v-73.142857h585.142858v73.142857zM694.857143 384h-365.714286L226.742857 201.14285700000005c0-7.314286-7.314286-14.628571-7.314286-21.942857V91.42857100000003h585.142858V171.885714c0 7.314286 0 21.942857-7.314286 29.257143l-7.314286 7.314286L694.857143 384zM804.571429 676.571429H219.428571v-29.257143c0-14.628571 7.314286-29.257143 14.628572-43.885715l95.085714-146.285714h373.028572l95.085714 146.285714c0 14.628571 7.314286 29.257143 7.314286 43.885715V676.571429z m0 146.285714H219.428571v-73.142857h585.142858V822.857143z"  horiz-adv-x="1024" />

    
    <glyph glyph-name="record" unicode="&#58915;" d="M694.857143 896c21.942857 0 36.571429-14.628571 36.571428-36.571429V822.857143h146.285715c43.885714 0 73.142857-29.257143 73.142857-73.142857v-804.571429c0-43.885714-29.257143-73.142857-73.142857-73.142857H146.285714c-43.885714 0-73.142857 29.257143-73.142857 73.142857V749.714286c0 43.885714 29.257143 73.142857 73.142857 73.142857h146.285715V859.428571c0 21.942857 14.628571 36.571429 36.571428 36.571429s36.571429-14.628571 36.571429-36.571429V822.857143h292.571428V859.428571c0 21.942857 14.628571 36.571429 36.571429 36.571429zM292.571429 749.714286H146.285714v-804.571429h731.428572V749.714286h-146.285715v-109.714286c0-21.942857-14.628571-36.571429-36.571428-36.571429S658.285714 618.057143 658.285714 640V749.714286H365.714286v-109.714286c0-21.942857-14.628571-36.571429-36.571429-36.571429S292.571429 618.057143 292.571429 640V749.714286z m402.285714-512c21.942857 0 36.571429-14.628571 36.571428-36.571429s-14.628571-36.571429-36.571428-36.571428h-365.714286c-21.942857 0-36.571429 14.628571-36.571428 36.571428s14.628571 36.571429 36.571428 36.571429h365.714286z m0 219.428571c21.942857 0 36.571429-14.628571 36.571428-36.571428s-14.628571-36.571429-36.571428-36.571429h-365.714286c-21.942857 0-36.571429 14.628571-36.571428 36.571429s14.628571 36.571429 36.571428 36.571428h365.714286z"  horiz-adv-x="1024" />

    
    <glyph glyph-name="member" unicode="&#58916;" d="M512 896c160.914286 0 292.571429-131.657143 292.571429-292.571429 0-73.142857-29.257143-138.971429-73.142858-190.171428 160.914286-73.142857 285.257143-219.428571 285.257143-394.971429 0-109.714286-58.514286-138.971429-138.971428-138.971428H138.971429c-65.828571 0-131.657143 29.257143-131.657143 146.285714C7.314286 201.14285700000005 131.657143 347.42857100000003 292.571429 420.571429 248.685714 464.457143 219.428571 530.285714 219.428571 603.4285709999999c0 160.914286 131.657143 292.571429 292.571429 292.571429zM351.085714 354.74285699999996C197.485714 296.228571 80.457143 164.57142899999997 80.457143 18.285713999999984c0-58.514286 14.628571-73.142857 58.514286-73.142857h746.057142c43.885714 0 65.828571 14.628571 65.828572 65.828572 0 153.6-117.028571 285.257143-277.942857 343.771428-51.2-29.257143-102.4-43.885714-160.914286-43.885714-58.514286 0-109.714286 14.628571-160.914286 43.885714zM512 822.857143C387.657143 822.857143 292.571429 727.771429 292.571429 603.4285709999999s95.085714-219.428571 219.428571-219.428571 219.428571 95.085714 219.428571 219.428571-95.085714 219.428571-219.428571 219.428572z"  horiz-adv-x="1024" />

    
    <glyph glyph-name="delete-condition" unicode="&#58917;" d="M512 896c285.257143 0 512-226.742857 512-512s-226.742857-512-512-512-512 226.742857-512 512 226.742857 512 512 512z m-7.314286-563.2l-277.942857-277.942857c73.142857-65.828571 175.542857-109.714286 285.257143-109.714286s204.8 36.571429 277.942857 102.4L504.685714 332.79999999999995z m336.457143 336.457143L555.885714 384l285.257143-285.257143c65.828571 73.142857 102.4 168.228571 109.714286 270.628572V384c0 109.714286-43.885714 212.114286-109.714286 285.257143z m-665.6-7.314286C109.714286 588.8 73.142857 493.714286 73.142857 384s36.571429-204.8 102.4-277.942857L453.485714 384 175.542857 661.942857zM512 822.857143c-109.714286 0-212.114286-43.885714-285.257143-109.714286l277.942857-277.942857 285.257143 285.257143c-73.142857 58.514286-160.914286 95.085714-263.314286 102.4H512z"  horiz-adv-x="1024" />

    
    <glyph glyph-name="tips" unicode="&#58918;" d="M512 896c285.257143 0 512-226.742857 512-512s-226.742857-512-512-512-512 226.742857-512 512 226.742857 512 512 512z m0-73.142857C270.628571 822.857143 73.142857 625.371429 73.142857 384s197.485714-438.857143 438.857143-438.857143 438.857143 197.485714 438.857143 438.857143-197.485714 438.857143-438.857143 438.857143z m0-694.857143c14.628571 0 29.257143-7.314286 43.885714-14.628571 14.628571-14.628571 14.628571-29.257143 14.628572-43.885715 0-21.942857-7.314286-29.257143-21.942857-43.885714-14.628571-14.628571-29.257143-14.628571-43.885715-14.628571s-29.257143 0-36.571428 7.314285c-14.628571 14.628571-14.628571 29.257143-14.628572 43.885715s7.314286 29.257143 14.628572 43.885714c7.314286 14.628571 21.942857 21.942857 43.885714 21.942857zM526.628571 749.714286c65.828571 0 117.028571-14.628571 160.914286-51.2 36.571429-36.571429 58.514286-80.457143 58.514286-146.285715 0-43.885714-14.628571-87.771429-36.571429-117.028571-21.942857-14.628571-43.885714-43.885714-87.771428-80.457143-29.257143-21.942857-43.885714-36.571429-51.2-58.514286-14.628571-21.942857-21.942857-43.885714-21.942857-73.142857v-21.942857H468.114286v21.942857c0 36.571429 7.314286 65.828571 21.942857 87.771429 14.628571 29.257143 51.2 73.142857 102.4 117.028571l36.571428 36.571429c14.628571 29.257143 29.257143 51.2 29.257143 80.457143 0 43.885714-14.628571 73.142857-36.571428 95.085714-21.942857 29.257143-58.514286 36.571429-102.4 36.571429-51.2 0-87.771429-14.628571-109.714286-51.2-21.942857-29.257143-36.571429-65.828571-36.571429-117.028572H292.571429c0 73.142857 21.942857 131.657143 58.514285 175.542857 43.885714 43.885714 102.4 65.828571 175.542857 65.828572z"  horiz-adv-x="1024" />

    
    <glyph glyph-name="remained" unicode="&#58919;" d="M329.142857 18.285713999999984c36.571429-43.885714 87.771429-73.142857 146.285714-73.142857s109.714286 29.257143 146.285715 73.142857h-292.571429z m146.285714 731.428572C292.571429 749.714286 146.285714 603.4285709999999 146.285714 420.571429v-204.8l-65.828571-102.4v-7.314286c-7.314286-7.314286 0-14.628571 7.314286-14.628572h775.314285c7.314286 7.314286 7.314286 14.628571 7.314286 21.942858L804.571429 215.771429V420.571429C804.571429 603.4285709999999 658.285714 749.714286 475.428571 749.714286z m0-877.714286c-102.4 0-190.171429 58.514286-234.057142 146.285714H87.771429C43.885714 18.285713999999984 0 54.85714299999995 0 106.057143c0 14.628571 7.314286 36.571429 14.628571 51.2L73.142857 237.71428600000002V420.571429C73.142857 603.4285709999999 197.485714 764.342857 365.714286 808.228571 380.342857 859.428571 424.228571 896 475.428571 896S570.514286 859.428571 585.142857 808.228571c168.228571-43.885714 292.571429-204.8 292.571429-387.657142V237.71428600000002l58.514285-80.457143c29.257143-43.885714 14.628571-95.085714-21.942857-124.342857-21.942857-7.314286-36.571429-14.628571-51.2-14.628572H709.485714c-43.885714-87.771429-131.657143-146.285714-234.057143-146.285714z"  horiz-adv-x="1024" />

    
    <glyph glyph-name="time" unicode="&#58920;" d="M548.571429 896C811.885714 896 1024 683.885714 1024 420.571429S811.885714-54.85714299999995 548.571429-54.85714299999995 73.142857 157.25714300000004 73.142857 420.571429 285.257143 896 548.571429 896z m0-73.142857C329.142857 822.857143 146.285714 640 146.285714 420.571429S329.142857 18.285713999999984 548.571429 18.285713999999984 950.857143 201.14285700000005 950.857143 420.571429 768 822.857143 548.571429 822.857143z m0-73.142857c21.942857 0 36.571429-14.628571 36.571428-36.571429v-277.942857l175.542857-175.542857c14.628571-14.628571 14.628571-36.571429 0-51.2-14.628571-14.628571-36.571429-14.628571-51.2 0L519.314286 391.314286c0 7.314286-7.314286 21.942857-7.314286 29.257143v292.571428c0 21.942857 14.628571 36.571429 36.571429 36.571429z"  horiz-adv-x="1024" />

    
    <glyph glyph-name="refresh" unicode="&#58921;" d="M80.457143 318.171429c7.314286 21.942857 29.257143 29.257143 51.2 21.942857l131.657143-58.514286c21.942857-7.314286 29.257143-29.257143 21.942857-51.2-14.628571-14.628571-36.571429-21.942857-51.2-14.628571L175.542857 237.71428600000002c58.514286-131.657143 190.171429-219.428571 336.457143-219.428572 146.285714 0 277.942857 87.771429 336.457143 219.428572 7.314286 21.942857 29.257143 29.257143 51.2 21.942857 21.942857-7.314286 29.257143-29.257143 21.942857-51.2C841.142857 47.542857000000026 687.542857-54.85714299999995 512-54.85714299999995c-175.542857 0-336.457143 109.714286-402.285714 263.314286l-21.942857-51.2c-7.314286-21.942857-29.257143-29.257143-51.2-21.942857-21.942857 7.314286-29.257143 29.257143-21.942858 51.2l65.828572 131.657143zM512 822.857143c182.857143 0 343.771429-117.028571 409.6-285.257143l21.942857 43.885714c7.314286 21.942857 29.257143 29.257143 51.2 14.628572 21.942857-7.314286 29.257143-29.257143 14.628572-51.2L950.857143 413.257143c-7.314286-21.942857-29.257143-29.257143-51.2-14.628572L768 457.142857c-21.942857 7.314286-29.257143 29.257143-14.628571 51.2s29.257143 29.257143 51.2 14.628572l65.828571-29.257143C811.885714 647.314286 672.914286 749.714286 512 749.714286 365.714286 749.714286 234.057143 661.942857 175.542857 522.971429c-7.314286-14.628571-29.257143-21.942857-51.2-14.628572s-21.942857 29.257143-14.628571 43.885714C175.542857 713.142857 336.457143 822.857143 512 822.857143z"  horiz-adv-x="1024" />

    
    <glyph glyph-name="search" unicode="&#58922;" d="M437.295374 896c240.512456 0 437.295374-196.782918 437.295373-437.295374 0-109.323843-36.441281-204.071174-102.035587-284.241993l240.512456-240.512455c14.576512-14.576512 14.576512-36.441281 0-51.017794s-36.441281-14.576512-51.017794 0l-240.512455 240.512456C641.366548 57.85053400000004 546.619217 21.409253000000035 437.295374 21.409253000000035c-240.512456 0-437.295374 196.782918-437.295374 437.295373s196.782918 437.295374 437.295374 437.295374z m0-72.882562C233.224199 823.117438 72.882562 662.775801 72.882562 458.704626s160.341637-364.412811 364.412812-364.412811 364.412811 160.341637 364.412811 364.412811-160.341637 364.412811-364.412811 364.412812z"  horiz-adv-x="1027" />

    
    <glyph glyph-name="calendar" unicode="&#58924;" d="M768 822.857143c21.942857 0 36.571429-14.628571 36.571429-36.571429V749.714286h146.285714c43.885714 0 73.142857-29.257143 73.142857-73.142857v-658.285715c0-43.885714-29.257143-73.142857-73.142857-73.142857H73.142857c-43.885714 0-73.142857 29.257143-73.142857 73.142857V676.571429c0 43.885714 29.257143 73.142857 73.142857 73.142857h146.285714v36.571428c0 21.942857 14.628571 36.571429 36.571429 36.571429s36.571429-14.628571 36.571429-36.571429V749.714286h438.857142v36.571428c0 21.942857 14.628571 36.571429 36.571429 36.571429zM219.428571 676.571429H73.142857v-658.285715h877.714286V676.571429h-146.285714v-36.571429c0-21.942857-14.628571-36.571429-36.571429-36.571429s-36.571429 14.628571-36.571429 36.571429V676.571429H292.571429v-36.571429c0-21.942857-14.628571-36.571429-36.571429-36.571429S219.428571 618.057143 219.428571 640V676.571429z m109.714286-512c21.942857 0 36.571429-14.628571 36.571429-36.571429s-14.628571-36.571429-36.571429-36.571429h-73.142857c-21.942857 0-36.571429 14.628571-36.571429 36.571429s14.628571 36.571429 36.571429 36.571429h73.142857z m219.428572 0c21.942857 0 36.571429-14.628571 36.571428-36.571429s-14.628571-36.571429-36.571428-36.571429h-73.142858c-21.942857 0-36.571429 14.628571-36.571428 36.571429s14.628571 36.571429 36.571428 36.571429h73.142858z m219.428571 0c21.942857 0 36.571429-14.628571 36.571429-36.571429s-14.628571-36.571429-36.571429-36.571429h-73.142857c-21.942857 0-36.571429 14.628571-36.571429 36.571429s14.628571 36.571429 36.571429 36.571429h73.142857z m-438.857143 146.285714c21.942857 0 36.571429-14.628571 36.571429-36.571429s-14.628571-36.571429-36.571429-36.571428h-73.142857c-21.942857 0-36.571429 14.628571-36.571429 36.571428s14.628571 36.571429 36.571429 36.571429h73.142857z m219.428572 0c21.942857 0 36.571429-14.628571 36.571428-36.571429s-14.628571-36.571429-36.571428-36.571428h-73.142858c-21.942857 0-36.571429 14.628571-36.571428 36.571428s14.628571 36.571429 36.571428 36.571429h73.142858z m219.428571 0c21.942857 0 36.571429-14.628571 36.571429-36.571429s-14.628571-36.571429-36.571429-36.571428h-73.142857c-21.942857 0-36.571429 14.628571-36.571429 36.571428s14.628571 36.571429 36.571429 36.571429h73.142857z m-438.857143 146.285714c21.942857 0 36.571429-14.628571 36.571429-36.571428s-14.628571-36.571429-36.571429-36.571429h-73.142857c-21.942857 0-36.571429 14.628571-36.571429 36.571429s14.628571 36.571429 36.571429 36.571428h73.142857z m219.428572 0c21.942857 0 36.571429-14.628571 36.571428-36.571428s-14.628571-36.571429-36.571428-36.571429h-73.142858c-21.942857 0-36.571429 14.628571-36.571428 36.571429s14.628571 36.571429 36.571428 36.571428h73.142858z m219.428571 0c21.942857 0 36.571429-14.628571 36.571429-36.571428s-14.628571-36.571429-36.571429-36.571429h-73.142857c-21.942857 0-36.571429 14.628571-36.571429 36.571429s14.628571 36.571429 36.571429 36.571428h73.142857z"  horiz-adv-x="1024" />

    
    <glyph glyph-name="right" unicode="&#58925;" d="M109.714286 479.085714c-14.628571 14.628571-36.571429 14.628571-51.2 0s-14.628571-36.571429 0-51.2l329.142857-365.714285c14.628571-14.628571 36.571429-14.628571 51.2 0l541.257143 585.142857c14.628571 14.628571 14.628571 36.571429 0 51.2-14.628571 14.628571-36.571429 14.628571-51.2 0l-512-555.885715-307.2 336.457143z"  horiz-adv-x="1024" />

    


  </font>
</defs>
</svg>
